<?xml version="1.0" encoding="UTF-8"?>
<svg version="1.1" xmlns="http://www.w3.org/2000/svg" width="1408" height="768">
<path d="M0 0 C464.64 0 929.28 0 1408 0 C1408 253.44 1408 506.88 1408 768 C943.36 768 478.72 768 0 768 C0 514.56 0 261.12 0 0 Z " fill="#F5F0E3" transform="translate(0,0)"/>
<path d="M0 0 C0.66 0 1.32 0 2 0 C2.05878077 3.64576392 2.0938558 7.29140352 2.125 10.9375 C2.14175781 11.95908203 2.15851563 12.98066406 2.17578125 14.03320312 C2.24738742 25.23956874 0.67255655 35.12112246 -7.43701172 43.48144531 C-10.04979842 45.98914296 -12.74702527 48.38433 -15.48828125 50.75 C-18.02624481 52.74597697 -18.02624481 52.74597697 -19 55 C-17.8553125 54.13375 -17.8553125 54.13375 -16.6875 53.25 C-10.84373199 49.36334298 -3.98458571 47.28783501 2.875 46.0625 C7.19480839 45.18623994 9.14232431 43.41333486 12 40 C13.66666667 38.33333333 15.33333333 36.66666667 17 35 C14.1144913 50.00464526 7.54368698 64.3682062 -5.1875 73.5 C-11.89741605 77.07862189 -17.52589686 77.23938409 -25 77 C-22.38921018 73.938757 -19.33023395 72.56514941 -15.75 70.8125 C-8.54754266 67.03060768 -4.44440911 62.66661366 0 56 C-9.88273185 57.57184218 -19.0331182 62.99651783 -25 71 C-31.04362836 79.52501358 -31.04362836 79.52501358 -34 89 C-33.45730469 88.72285156 -32.91460938 88.44570313 -32.35546875 88.16015625 C-31.28232422 87.61681641 -31.28232422 87.61681641 -30.1875 87.0625 C-29.47980469 86.70285156 -28.77210938 86.34320313 -28.04296875 85.97265625 C-23.85766288 83.98003453 -20.40477092 83.8789705 -15.8125 83.75 C-9.23455581 83.44695961 -5.15552278 82.00707703 0 78 C1.31951265 77.30638008 2.65004496 76.63233188 4 76 C0.39734757 88.47655419 -8.71606835 100.64355585 -19.99438477 107.03735352 C-26.55978902 110.51357065 -32.52541314 112.21808082 -40 111 C-40.66 110.67 -41.32 110.34 -42 110 C-42 109.34 -42 108.68 -42 108 C-41.0821875 107.70867187 -40.164375 107.41734375 -39.21875 107.1171875 C-29.85613164 103.98975826 -22.76762844 100.33159748 -16 93 C-24.2957795 91.83859087 -31.18715809 95.58415619 -38 100 C-45.29561687 105.69732226 -50.16970675 113.22151686 -55 121 C-53.906875 120.51402344 -52.81375 120.02804687 -51.6875 119.52734375 C-45.63319972 117.25564877 -39.51930977 117.56489735 -33.1328125 117.56054688 C-27.49149358 117.44725169 -23.52731973 116.7867675 -18.65625 113.85522461 C-17 113 -17 113 -14 113 C-21.91587368 124.96289592 -31.436866 137.833122 -45.6484375 142.5703125 C-51.01030911 143.55005648 -56.58814606 143.54686713 -62 143 C-62.66 142.34 -63.32 141.68 -64 141 C-62.80375 140.649375 -61.6075 140.29875 -60.375 139.9375 C-51.07372531 136.82724808 -42.36083117 132.5007644 -35 126 C-44.46776752 125.11927744 -54.20521399 128.64154081 -61.81640625 134.171875 C-68.26002553 139.566533 -73.89614955 145.75385018 -79.34765625 152.12890625 C-81.57984282 154.65660688 -83.97932142 156.99220636 -86.38671875 159.3515625 C-88.20819475 161.16207301 -88.20819475 161.16207301 -90.4375 164 C-93.66050125 167.77326975 -97.19305814 170.82754845 -101 174 C-101.81839355 174.69488525 -101.81839355 174.69488525 -102.65332031 175.40380859 C-130.43672398 198.95347988 -160.64252734 214.72768848 -198 212 C-214.09061837 209.9232244 -228.23962647 201.89045842 -239 190 C-248.42837804 177.34170235 -250.14337033 163.34806531 -249 148 C-246.88560428 134.7993132 -238.93805563 123.60428001 -228.875 115.06640625 C-221.03555163 109.43180273 -212.17110682 104.99464712 -203 102 C-203.75023437 101.59910156 -204.50046875 101.19820313 -205.2734375 100.78515625 C-217.40573379 94.04668942 -228.09935355 85.78114346 -232.875 72.3125 C-235.97853601 60.43408537 -234.27811562 48.96773655 -228.625 38.25 C-220.39860696 24.45088909 -206.16425142 15.27582888 -190.75292969 11.21606445 C-187.51192188 10.41101834 -184.27026762 9.67985308 -181 9 C-179.61748047 8.70802734 -179.61748047 8.70802734 -178.20703125 8.41015625 C-157.04110878 5.70318687 -132.49090627 8.06086073 -115.109375 21.32421875 C-114.41328125 21.87722656 -113.7171875 22.43023437 -113 23 C-111.9275 23.763125 -110.855 24.52625 -109.75 25.3125 C-104.38811926 30.55251981 -99.91066049 37.54987173 -99.5625 45.125 C-99.59777716 50.49418363 -100.92679426 53.3479496 -104.296875 57.44140625 C-108.14426349 60.96229618 -111.62058875 61.45912223 -116.6875 61.30078125 C-120.49777916 60.80518751 -123.22357465 59.68851743 -126 57 C-127.21972743 54.98190553 -128.06167566 52.96674287 -128.91796875 50.76953125 C-132.75560858 40.9468358 -136.57615652 31.52804946 -146.5234375 26.80078125 C-156.9596501 22.43960736 -167.68710065 21.15813984 -178.59375 24.96484375 C-189.20244014 29.52864714 -196.32410973 35.49165104 -200.9375 46.1875 C-204.45097374 56.20611818 -204.17453284 66.22589298 -200 76 C-196.13989006 83.90403464 -190.15339989 89.61620236 -182.16015625 93.3125 C-176.63301636 95.07158973 -171.10213443 94.32951226 -165.5625 93 C-160.4800204 91.87505627 -155.4968434 91.7390707 -150.3125 91.6875 C-149.50433838 91.67009766 -148.69617676 91.65269531 -147.86352539 91.63476562 C-141.78126293 91.63976697 -136.67518919 92.49740366 -132.0625 96.8125 C-130.62196163 99.77831429 -130.60017362 101.73475127 -131 105 C-132.39461387 108.74802479 -133.69526459 109.82671908 -137.1875 111.8125 C-145.3099079 114.45003467 -155.3843086 113.69697201 -163.625 112 C-176.35164201 109.38598208 -186.81485105 110.66690012 -197.7578125 117.796875 C-207.16720392 124.81880889 -214.22000997 135.22855648 -216 147 C-216.8039727 159.77130398 -216.30690862 171.85578428 -207.76171875 182.1875 C-199.49123272 190.69638141 -190.36565493 195.04877364 -178.50317383 195.24169922 C-169.87437384 195.2703132 -162.23794595 194.81739894 -154 192 C-152.77152344 191.60941406 -151.54304687 191.21882812 -150.27734375 190.81640625 C-135.79710732 185.97959889 -123.61640809 177.79346592 -112 168 C-110.73349609 167.00806641 -110.73349609 167.00806641 -109.44140625 165.99609375 C-85.98079551 147.55970001 -85.98079551 147.55970001 -73 122 C-72.32387718 114.51219206 -72.84257128 107.88744814 -76 101 C-76.33 100.67 -76.66 100.34 -77 100 C-79.68605545 107.35460353 -80.3904165 113.83092536 -80.1875 121.625 C-80.17396484 122.62917969 -80.16042969 123.63335937 -80.14648438 124.66796875 C-80.11156152 127.11256864 -80.06252748 129.55597734 -80 132 C-85.76136981 126.51241429 -87.11353253 121.72307045 -87.35644531 113.87329102 C-87.46993068 100.12214988 -83.19335752 89.60218955 -76 78 C-75.01 77.34 -74.02 76.68 -73 76 C-72.98582031 76.88300781 -72.97164062 77.76601563 -72.95703125 78.67578125 C-72.61495046 87.28327345 -70.9483771 93.40991587 -67 101 C-65.02027568 105.9493108 -64.4452032 110.72785679 -64 116 C-54.71092651 103.73633556 -51.12178214 93.37971472 -53 78 C-53.96121872 74.41200252 -55.17939911 71.23481766 -57 68 C-59.08905318 72.28544901 -59.23842837 75.82616177 -59.1875 80.5625 C-59.18105469 81.26052734 -59.17460938 81.95855469 -59.16796875 82.67773438 C-59.07835545 88.81064463 -58.64689569 94.90069775 -58 101 C-58.66 101 -59.32 101 -60 101 C-66.32936676 90.81165708 -69.07741064 81.97216081 -67 70 C-64.79868931 61.14291478 -60.84140111 52.71196638 -56 45 C-55.67 45 -55.34 45 -55 45 C-55.020625 45.680625 -55.04125 46.36125 -55.0625 47.0625 C-54.89446669 54.96006552 -52.64630715 60.20658551 -48.953125 66.96875 C-45.64356733 73.21478794 -44.48532396 78.91427011 -44 86 C-33.9738152 65.90418453 -33.9738152 65.90418453 -34.90234375 43.8828125 C-35.84109662 41.52423767 -36.83620605 39.25485078 -38 37 C-39.81359313 40.88134031 -40.2373701 43.90693517 -40.1953125 48.17578125 C-40.18886719 49.33271484 -40.18242188 50.48964844 -40.17578125 51.68164062 C-40.15902344 52.87982422 -40.14226562 54.07800781 -40.125 55.3125 C-40.11597656 56.53001953 -40.10695313 57.74753906 -40.09765625 59.00195312 C-40.07413037 62.00150274 -40.04125653 65.00065044 -40 68 C-46.67130164 61.59074622 -48.30726136 56.34385632 -48.5 47.25 C-48.45510742 39.60593741 -46.58925257 33.77780473 -43 27 C-42.29555664 25.64193552 -41.59113059 24.28386207 -40.88671875 22.92578125 C-38.96664843 19.25999868 -36.99576962 15.62507038 -35 12 C-34.34 12 -33.68 12 -33 12 C-33.165 12.66 -33.33 13.32 -33.5 14 C-34.93667668 22.6200601 -33.29002537 27.32058713 -29.41015625 35.14453125 C-27.38240582 39.25058545 -26.8841835 42.15559742 -26.9375 46.6875 C-26.94652344 47.68136719 -26.95554687 48.67523438 -26.96484375 49.69921875 C-26.98224609 50.83810547 -26.98224609 50.83810547 -27 52 C-26.34 52 -25.68 52 -25 52 C-25.00169189 51.04915527 -25.00169189 51.04915527 -25.00341797 50.07910156 C-24.94149756 35.25589303 -24.84319926 23.89192921 -14.125 12.6875 C-12.76849596 11.43795109 -11.3931237 10.2085868 -10 9 C-9.2678125 8.34902344 -8.535625 7.69804687 -7.78125 7.02734375 C-6.41714653 5.8238684 -5.04561598 4.62871488 -3.6640625 3.4453125 C-2.39833536 2.34597202 -1.1854566 1.1854566 0 0 Z " fill="#7E5228" transform="translate(860,184)"/>
<path d="M0 0 C7.00039804 5.89274012 13.8326319 12.86901308 14.84814453 22.32861328 C15.69037824 34.93571657 14.85679365 45.46323955 6.625 55.5625 C-0.69379298 63.19738703 -10.03327217 67.31760507 -20.49731445 67.59350586 C-33.0739614 67.73420376 -43.16276893 66.31778971 -52.625 57.26953125 C-61.4689557 47.06344844 -63.27820544 36.23675515 -62.5703125 23.19677734 C-62.14780279 18.98541181 -60.67304683 15.74702778 -58.375 12.25 C-57.93929687 11.55648438 -57.50359375 10.86296875 -57.0546875 10.1484375 C-51.31494112 1.77405344 -42.85420444 -3.91985209 -32.98046875 -6.3359375 C-21.59336574 -8.14558206 -9.60035426 -6.77019202 0 0 Z " fill="#7E5328" transform="translate(848.375,448.75)"/>
<path d="M0 0 C10.085625 -0.1546875 10.085625 -0.1546875 20.375 -0.3125 C23.52748291 -0.38078003 23.52748291 -0.38078003 26.74365234 -0.45043945 C38.02769826 -0.59289492 46.12098581 -0.12850174 54.9375 7.5625 C60.54394227 14.18829541 61.42589787 18.630496 61.3359375 27.34765625 C60.75759596 33.63543923 58.60062741 38.28404543 54.23828125 42.83984375 C45.7783682 49.85831117 35.9462035 50.43797201 25.375 50.1875 C23.72564453 50.16719727 23.72564453 50.16719727 22.04296875 50.14648438 C19.36176263 50.11151212 16.68081287 50.05772085 14 50 C14 57.26 14 64.52 14 72 C9.38 72 4.76 72 0 72 C0 48.24 0 24.48 0 0 Z " fill="#80552A" transform="translate(535,444)"/>
<path d="M0 0 C11 0 11 0 13.7265625 1.80078125 C14.66628906 3.04408203 14.66628906 3.04408203 15.625 4.3125 C16.35460937 5.23417969 17.08421875 6.15585937 17.8359375 7.10546875 C18.55007813 8.06066406 19.26421875 9.01585937 20 10 C21.41120068 11.71285138 22.82795969 13.42113716 24.25 15.125 C25.39322035 16.53697742 26.53629762 17.9490735 27.67675781 19.36328125 C29.18262894 21.22589381 30.69639078 23.08193542 32.2109375 24.9375 C33.34901551 26.33328671 34.48703654 27.72911989 35.625 29.125 C36.41438965 30.09203857 36.41438965 30.09203857 37.21972656 31.07861328 C41.22262329 35.99941135 45.1029272 40.98947783 49 46 C49.33 30.82 49.66 15.64 50 0 C54.95 0 59.9 0 65 0 C65 24.09 65 48.18 65 73 C53 73 53 73 50.17578125 71.19921875 C49.56089844 70.37035156 48.94601562 69.54148437 48.3125 68.6875 C47.59449219 67.76839844 46.87648438 66.84929687 46.13671875 65.90234375 C45.43160156 64.94457031 44.72648438 63.98679687 44 63 C42.54810935 61.24465113 41.08969838 59.49467612 39.625 57.75 C35.77752826 53.004338 31.99505446 48.20834307 28.24462891 43.38574219 C23.92070453 37.84224939 19.45732417 32.44784065 15 27 C14.67 42.18 14.34 57.36 14 73 C9.38 73 4.76 73 0 73 C0 48.91 0 24.82 0 0 Z " fill="#81562B" transform="translate(883,443)"/>
<path d="M0 0 C17.82 0 35.64 0 54 0 C54 3.96 54 7.92 54 12 C40.8 12 27.6 12 14 12 C14 17.94 14 23.88 14 30 C25.55 30 37.1 30 49 30 C49 33.63 49 37.26 49 41 C37.45 41 25.9 41 14 41 C14 47.27 14 53.54 14 60 C27.53 60 41.06 60 55 60 C55 63.96 55 67.92 55 72 C36.85 72 18.7 72 0 72 C0 48.24 0 24.48 0 0 Z " fill="#82582E" transform="translate(461,443)"/>
<path d="M0 0 C-0.66498383 4.38889325 -2.18757677 7.9811485 -4 12 C-4.639375 11.731875 -5.27875 11.46375 -5.9375 11.1875 C-6.948125 10.795625 -7.95875 10.40375 -9 10 C-9.6084375 9.73574219 -10.216875 9.47148437 -10.84375 9.19921875 C-17.67042763 6.51185125 -24.73801871 6.1054081 -32 7 C-35.71755059 8.76331239 -35.71755059 8.76331239 -38 12 C-38.3801343 15.4972356 -38.57373158 17.28254134 -36.33349609 20.08398438 C-33.66436514 22.27558719 -31.68908205 22.94755035 -28.3515625 23.78125 C-27.26359375 24.06613281 -26.175625 24.35101563 -25.0546875 24.64453125 C-23.92289063 24.92683594 -22.79109375 25.20914062 -21.625 25.5 C-11.1753382 28.12439901 -4.62676514 30.29053725 2 39 C4.23188559 43.46377118 3.64892681 49.57375772 2.38671875 54.29296875 C0.02565821 59.67036214 -3.85239927 63.24642823 -9 66 C-14.76620609 68.10466522 -20.12421944 68.38536738 -26.1875 68.375 C-27.5787207 68.37367065 -27.5787207 68.37367065 -28.99804688 68.37231445 C-38.46434456 68.20941607 -45.96400346 66.00814785 -54 61 C-53.52546847 56.15977839 -52.62064422 53.06797052 -50 49 C-48.97519531 49.42152344 -47.95039062 49.84304688 -46.89453125 50.27734375 C-45.53394819 50.8309603 -44.17326584 51.38433286 -42.8125 51.9375 C-42.13896484 52.21529297 -41.46542969 52.49308594 -40.77148438 52.77929688 C-33.93207523 55.5484235 -26.76128599 57.6495794 -19.51953125 55.140625 C-15.47574926 53.51766801 -15.47574926 53.51766801 -12 51 C-11.59689469 46.96345727 -11.59689469 46.96345727 -13.0625 43.3125 C-18.16367486 39.85686542 -23.87150733 38.4331415 -29.8125 37.125 C-38.34341042 35.1046769 -47.09916271 32.88395564 -52 25 C-54.32761859 20.34476281 -53.3990846 14.06663921 -53 9 C-50.35324867 2.8242469 -44.75257361 -1.28728692 -38.71484375 -4.04296875 C-26.17430752 -8.38627642 -11.43374796 -6.66968631 0 0 Z " fill="#7F542A" transform="translate(665,448)"/>
<path d="M0 0 C6.60219633 5.52742018 11.02063975 11.87550236 11.8984375 20.58203125 C12.01979685 31.39514972 10.03558718 38.59207015 2.51953125 46.51953125 C-4.08066392 52.35563197 -11.20777595 53.00783077 -19.83203125 52.765625 C-25.91396344 51.89583621 -29.88124089 49.23588249 -33.83203125 44.62109375 C-37.21640694 39.84948279 -38.23413622 35.01197158 -37.4375 29.25 C-35.41507185 25.42183243 -33.2838671 22.35929809 -29.4375 20.25 C-27.9525 20.745 -27.9525 20.745 -26.4375 21.25 C-27.4275 22.735 -27.4275 22.735 -28.4375 24.25 C-29.20518116 28.9364257 -28.84635085 32.44690011 -26.6875 36.6875 C-24.09715655 39.63761337 -22.19515915 41.00392772 -18.2890625 41.55078125 C-13.25237403 41.57729014 -9.73973084 41.15150452 -5.4375 38.25 C-0.35845202 32.62186575 -0.07773348 28.90593328 -0.16796875 21.44921875 C-0.59984087 16.32308442 -2.50534933 13.98097229 -6.23828125 10.63671875 C-15.60333348 3.017385 -26.89261072 3.1431141 -38.4375 4.25 C-57.23532192 7.44327369 -74.00922724 19.17011807 -89.6640625 29.34765625 C-122.67480688 50.36588969 -122.67480688 50.36588969 -134.61157227 47.77880859 C-135.21412842 47.60430176 -135.81668457 47.42979492 -136.4375 47.25 C-135.34695313 46.81171875 -134.25640625 46.3734375 -133.1328125 45.921875 C-117.28388444 39.34093152 -104.00381324 30.02395796 -90.40356445 19.68945312 C-77.89904556 10.24881202 -64.94502357 2.23216274 -50.4375 -3.75 C-49.53386719 -4.1315625 -48.63023437 -4.513125 -47.69921875 -4.90625 C-33.2469011 -9.88503886 -12.73199457 -8.71011217 0 0 Z " fill="#7C542B" transform="translate(851.4375,347.75)"/>
<path d="M0 0 C5.62224192 3.75478347 10.27144776 8.33272709 12 15 C13.11571016 23.89380384 12.55546188 31.7176596 7 39 C1.18672154 44.72972004 -4.64213239 47.03417495 -12.75 47.4375 C-19.96777717 47.28526401 -25.74426788 45.28950527 -30.8828125 40.09765625 C-36.10215138 33.5293578 -37.54030391 27.42874715 -37.375 19.1015625 C-36.57693426 12.50089376 -33.55127728 7.11755793 -28.75 2.5625 C-20.11797095 -4.06164403 -9.68478501 -4.69262779 0 0 Z " fill="#F6F1E2" transform="translate(837,457)"/>
<path d="M0 0 C4.62 0 9.24 0 14 0 C14 19.8 14 39.6 14 60 C26.54 60 39.08 60 52 60 C52 64.29 52 68.58 52 73 C34.84 73 17.68 73 0 73 C0 48.91 0 24.82 0 0 Z " fill="#875C32" transform="translate(724,443)"/>
<path d="M0 0 C3.815625 -0.061875 7.63125 -0.12375 11.5625 -0.1875 C13.34636108 -0.22846802 13.34636108 -0.22846802 15.16625977 -0.27026367 C22.53858369 -0.32798117 27.88283999 0.04269435 33.4375 5.3125 C35.37237363 8.64048264 35.60794546 10.20034088 35 14 C33.83449532 16.49176863 32.48975507 18.6722577 31 21 C31.804375 21.78375 32.60875 22.5675 33.4375 23.375 C36.17074942 26.17491404 36.88129054 26.95535679 37.3125 30.75 C36.9118895 34.91634919 35.68927657 36.81533038 33 40 C28.67965559 42.61089711 25.52779403 43.36468277 20.5078125 43.29296875 C19.4264502 43.28547607 18.34508789 43.2779834 17.23095703 43.27026367 C15.87599121 43.24295166 14.52102539 43.21563965 13.125 43.1875 C8.79375 43.125625 4.4625 43.06375 0 43 C0 28.81 0 14.62 0 0 Z " fill="#7C5A35" transform="translate(554,541)"/>
<path d="M0 0 C3.96 -0.144375 7.92 -0.28875 12 -0.4375 C13.84851563 -0.53309204 13.84851563 -0.53309204 15.734375 -0.63061523 C21.39172617 -0.73000361 25.26430593 -0.4876971 29.76953125 3.14453125 C32.12232517 5.58667569 32.94791062 6.81596615 33.88671875 10.1328125 C33.82097656 11.12023437 33.75523437 12.10765625 33.6875 13.125 C33.65011719 14.11757813 33.61273437 15.11015625 33.57421875 16.1328125 C32.93162986 19.34138559 31.93030978 21.36902489 30 24 C27.3125 25.3125 27.3125 25.3125 25 26 C27.67514273 31.03233817 30.38017648 35.57577125 34 40 C34 40.66 34 41.32 34 42 C31.26953125 42.37109375 31.26953125 42.37109375 28 42 C25.69921875 39.41015625 25.69921875 39.41015625 23.6875 36.0625 C23.01074219 34.96035156 22.33398438 33.85820313 21.63671875 32.72265625 C21.09660156 31.82417969 20.55648437 30.92570313 20 30 C18.05909174 28.05909174 14.52706098 28.60080565 11.9375 28.4375 C9.648125 28.293125 7.35875 28.14875 5 28 C5 32.62 5 37.24 5 42 C3.35 42 1.7 42 0 42 C0 28.14 0 14.28 0 0 Z " fill="#74502B" transform="translate(768,542)"/>
<path d="M0 0 C4.62 0 9.24 0 14 0 C14 23.76 14 47.52 14 72 C9.38 72 4.76 72 0 72 C0 48.24 0 24.48 0 0 Z " fill="#7E5328" transform="translate(686,443)"/>
<path d="M0 0 C0.66 0 1.32 0 2 0 C2.98163422 1.93625098 3.96022454 3.87404539 4.9375 5.8125 C5.48277344 6.89144531 6.02804687 7.97039063 6.58984375 9.08203125 C8 12 8 12 9 15 C10.73812739 16.07925238 10.73812739 16.07925238 13 17 C17 19 21 21 25 23 C25 23.66 25 24.32 25 25 C24.21496094 25.3403125 23.42992187 25.680625 22.62109375 26.03125 C11.73574938 31.05320028 6.17844446 36.78827324 2 48 C1.34 48 0.68 48 0 48 C-0.32871094 47.2265625 -0.65742187 46.453125 -0.99609375 45.65625 C-5.1175936 36.63139397 -10.03203679 29.6603726 -19.5625 26 C-20.696875 25.67 -21.83125 25.34 -23 25 C-23 24.34 -23 23.68 -23 23 C-22.21496094 22.6596875 -21.42992187 22.319375 -20.62109375 21.96875 C-9.73574938 16.94679972 -4.17844446 11.21172676 0 0 Z " fill="#F9F7F0" transform="translate(1351,688)"/>
<path d="M0 0 C4.9190625 -0.12375 4.9190625 -0.12375 9.9375 -0.25 C10.95191162 -0.28641602 11.96632324 -0.32283203 13.01147461 -0.36035156 C19.43102178 -0.43759793 24.47410354 0.63114207 30 4 C33.08578473 7.36631062 33.47770973 10.46312919 33.2890625 15.0078125 C32.69130163 19.12751578 31.05552791 22.04342783 28 24.8125 C24.48560803 26.89917023 21.67396417 27.11974566 17.67578125 27.09765625 C16.74934814 27.09515869 15.82291504 27.09266113 14.8684082 27.09008789 C13.6949585 27.08098389 12.52150879 27.07187988 11.3125 27.0625 C7.579375 27.041875 3.84625 27.02125 0 27 C0 18.09 0 9.18 0 0 Z " fill="#F6F1E1" transform="translate(549,455)"/>
<path d="M0 0 C1.65 0 3.3 0 5 0 C9.93617505 9.74168664 14.74927139 19.54155567 19.5 29.375 C20.04043945 30.48673584 20.58087891 31.59847168 21.13769531 32.74389648 C21.63881836 33.78489502 22.13994141 34.82589355 22.65625 35.8984375 C23.10806641 36.83349121 23.55988281 37.76854492 24.02539062 38.73193359 C25 41 25 41 25 43 C23.35 43 21.7 43 20 43 C19.16151196 41.54462432 18.32936066 40.08559627 17.5 38.625 C17.0359375 37.81289063 16.571875 37.00078125 16.09375 36.1640625 C15 34 15 34 15 32 C7.08 32.33 -0.84 32.66 -9 33 C-10.65 36.3 -12.3 39.6 -14 43 C-15.65 43 -17.3 43 -19 43 C-17.13010565 37.005305 -14.92191863 31.34276627 -12.20703125 25.68359375 C-11.68069344 24.57069725 -11.68069344 24.57069725 -11.14372253 23.43531799 C-10.03810592 21.100403 -8.92545122 18.76892634 -7.8125 16.4375 C-7.05486734 14.84071828 -6.29770173 13.24371487 -5.54101562 11.64648438 C-3.69939062 7.76174349 -1.85145223 3.88006626 0 0 Z " fill="#8C6A47" transform="translate(623,541)"/>
<path d="M0 0 C0.05878077 3.64576392 0.0938558 7.29140352 0.125 10.9375 C0.14175781 11.95908203 0.15851562 12.98066406 0.17578125 14.03320312 C0.23101315 22.67699583 -0.32709433 30.15703691 -5.125 37.5625 C-5.66382813 38.40941406 -6.20265625 39.25632813 -6.7578125 40.12890625 C-7.16773438 40.74636719 -7.57765625 41.36382812 -8 42 C-8.433125 41.0409375 -8.433125 41.0409375 -8.875 40.0625 C-9.82823451 37.84793921 -9.82823451 37.84793921 -12 37 C-12.763125 37.639375 -13.52625 38.27875 -14.3125 38.9375 C-17 41 -17 41 -20 42 C-20 37.05 -20 32.1 -20 27 C-20.66 27.66 -21.32 28.32 -22 29 C-22.99 29 -23.98 29 -25 29 C-23.55893555 19.56804733 -16.53393386 13.10640688 -9.75 6.9375 C-9.03070312 6.26267578 -8.31140625 5.58785156 -7.5703125 4.89257812 C-2.27621581 0 -2.27621581 0 0 0 Z " fill="#79532B" transform="translate(862,184)"/>
<path d="M0 0 C1.65 0 3.3 0 5 0 C5.33 7.92 5.66 15.84 6 24 C8.89897922 21.12811404 11.79424332 18.25264157 14.6875 15.375 C15.91243164 14.16263672 15.91243164 14.16263672 17.16210938 12.92578125 C22.23735716 7.87880778 22.23735716 7.87880778 26.875 2.4375 C29 0 29 0 32.3125 -0.375 C33.199375 -0.25125 34.08625 -0.1275 35 0 C33.64556914 3.05777443 32.15295264 5.04421157 29.70703125 7.3125 C29.07732422 7.91320312 28.44761719 8.51390625 27.79882812 9.1328125 C26.46837518 10.38346443 25.13236097 11.62822504 23.79101562 12.8671875 C23.16517578 13.46789062 22.53933594 14.06859375 21.89453125 14.6875 C21.31550049 15.22761719 20.73646973 15.76773438 20.13989258 16.32421875 C18.77271642 17.94927655 18.77271642 17.94927655 19.203125 20.0612793 C20.34704719 22.84433263 22.13228443 24.62646669 24.1875 26.8125 C24.99445312 27.68519531 25.80140625 28.55789063 26.6328125 29.45703125 C27.41398438 30.29621094 28.19515625 31.13539063 29 32 C35 38.6437247 35 38.6437247 35 41 C35.66 41 36.32 41 37 41 C37 41.66 37 42.32 37 43 C34.34765625 43.3515625 34.34765625 43.3515625 31 43 C28.84892382 41.15622042 27.21812954 39.52394806 25.4375 37.375 C24.75397461 36.59189453 24.75397461 36.59189453 24.05664062 35.79296875 C22.68400305 34.2114091 21.33890385 32.61017868 20 31 C19.52062988 30.42668945 19.04125977 29.85337891 18.54736328 29.26269531 C17.36247184 27.84382847 16.18089288 26.42219649 15 25 C11.59840125 26.45782804 9.35927405 28.13792984 7 31 C6.30602551 34.03222778 6.30602551 34.03222778 6.25 37.25 C6.19328125 38.32765625 6.1365625 39.4053125 6.078125 40.515625 C6.05234375 41.33546875 6.0265625 42.1553125 6 43 C4.02 43 2.04 43 0 43 C0 28.81 0 14.62 0 0 Z " fill="#74512D" transform="translate(664,541)"/>
<path d="M0 0 C9.9 0 19.8 0 30 0 C30 1.65 30 3.3 30 5 C21.75 5 13.5 5 5 5 C5 9.62 5 14.24 5 19 C12.26 19 19.52 19 27 19 C27 20.32 27 21.64 27 23 C19.74 23 12.48 23 5 23 C5 28.28 5 33.56 5 39 C13.58 39 22.16 39 31 39 C31 40.32 31 41.64 31 43 C20.77 43 10.54 43 0 43 C0 28.81 0 14.62 0 0 Z " fill="#82613D" transform="translate(717,541)"/>
<path d="M0 0 C2.68125 -0.103125 5.3625 -0.20625 8.125 -0.3125 C9.37434326 -0.38078003 9.37434326 -0.38078003 10.64892578 -0.45043945 C14.63762671 -0.52419854 17.29012353 -0.23574297 20.51171875 2.23828125 C23.8080288 5.89682318 23.8080288 5.89682318 23.6875 9.5 C23.44976946 13.15739294 23.02050789 13.9740953 20.625 17 C16.31388356 20.28466014 13.11980046 20.12093645 7.875 20.0625 C5.27625 20.041875 2.6775 20.02125 0 20 C0 13.4 0 6.8 0 0 Z " fill="#F7F1E1" transform="translate(773,546)"/>
<path d="M0 0 C4.29 0 8.58 0 13 0 C13 19.8 13 39.6 13 60 C12.67 60 12.34 60 12 60 C12 40.53 12 21.06 12 1 C9.36 1 6.72 1 4 1 C4 20.8 4 40.6 4 61 C3.01 61.495 3.01 61.495 2 62 C2 64.31 2 66.62 2 69 C17.84 69.33 33.68 69.66 50 70 C50 67.03 50 64.06 50 61 C38.12 61 26.24 61 14 61 C14 60.67 14 60.34 14 60 C26.21 60 38.42 60 51 60 C51 63.63 51 67.26 51 71 C34.17 71 17.34 71 0 71 C0 47.57 0 24.14 0 0 Z " fill="#724A23" transform="translate(724,444)"/>
<path d="M0 0 C3.2296738 -0.08111739 6.45730014 -0.14055592 9.6875 -0.1875 C11.05551758 -0.22520508 11.05551758 -0.22520508 12.45117188 -0.26367188 C17.47202952 -0.31844487 20.92233294 -0.2970139 25 3 C26.86922654 4.86922654 26.29230229 7.49751169 26.42578125 9.9921875 C26 12 26 12 24.29858398 13.60717773 C21.54901532 15.27327325 19.98930592 15.34865068 16.796875 15.29296875 C15.32734375 15.2784668 15.32734375 15.2784668 13.828125 15.26367188 C12.30445313 15.2259668 12.30445313 15.2259668 10.75 15.1875 C9.71875 15.17396484 8.6875 15.16042969 7.625 15.14648438 C5.08310951 15.11118034 2.5414881 15.05737473 0 15 C0 10.05 0 5.1 0 0 Z " fill="#F4EFDE" transform="translate(559,564)"/>
<path d="M0 0 C2.18359375 -0.44140625 2.18359375 -0.44140625 5 0 C6.95773229 2.34384898 8.48831797 4.48103611 10.0625 7.0625 C10.48337891 7.71927734 10.90425781 8.37605469 11.33789062 9.05273438 C14.03078239 13.29038576 16.53693786 17.62564715 19 22 C23.6356413 15.81130121 27.995511 9.5935859 31.87109375 2.8984375 C33 1 33 1 34 0 C35.66617115 -0.04063832 37.33388095 -0.042721 39 0 C37.41243965 3.27579525 35.64310042 6.41654824 33.8125 9.5625 C33.19761719 10.63113281 32.58273437 11.69976563 31.94921875 12.80078125 C30 16 30 16 28.01953125 18.66796875 C22.23281167 26.55461131 21.91680216 33.52733119 22 43 C20.35 43 18.7 43 17 43 C17.09023438 42.10023438 17.18046875 41.20046875 17.2734375 40.2734375 C17.62547651 26.76055569 11.1829584 18.04190684 3.49633789 7.33325195 C1.97370867 4.95900371 0.95890873 2.64630668 0 0 Z " fill="#75522D" transform="translate(815,541)"/>
<path d="M0 0 C1.65 0 3.3 0 5 0 C6.29673602 2.53919006 7.58747837 5.08114238 8.875 7.625 C9.23980469 8.33785156 9.60460937 9.05070313 9.98046875 9.78515625 C12.00000927 13.78751837 13.7081111 17.68917073 15 22 C12.03824877 21.38722388 10.61941217 20.74627478 8 19 C6.61328125 16.3984375 6.61328125 16.3984375 5.3125 13.375 C4.65701172 11.87066406 4.65701172 11.87066406 3.98828125 10.3359375 C3.66214844 9.56507813 3.33601562 8.79421875 3 8 C1.42978249 10.35532627 0.2396038 12.46988217 -0.9453125 15.01171875 C-1.29980469 15.76904297 -1.65429688 16.52636719 -2.01953125 17.30664062 C-2.38433594 18.09232422 -2.74914062 18.87800781 -3.125 19.6875 C-3.49753906 20.48478516 -3.87007812 21.28207031 -4.25390625 22.10351562 C-5.1714476 24.06799519 -6.08601264 26.0338644 -7 28 C-6.40461426 27.98428955 -5.80922852 27.9685791 -5.19580078 27.95239258 C-2.50562997 27.89014199 0.18438957 27.85104217 2.875 27.8125 C3.81214844 27.78736328 4.74929688 27.76222656 5.71484375 27.73632812 C6.61074219 27.72666016 7.50664063 27.71699219 8.4296875 27.70703125 C9.25710449 27.6913208 10.08452148 27.67561035 10.93701172 27.65942383 C11.61779785 27.77181396 12.29858398 27.8842041 13 28 C13.66 28.99 14.32 29.98 15 31 C14.22285645 30.99476318 13.44571289 30.98952637 12.64501953 30.98413086 C9.13835451 30.96339844 5.63170237 30.95035179 2.125 30.9375 C0.90167969 30.92912109 -0.32164062 30.92074219 -1.58203125 30.91210938 C-2.74863281 30.90888672 -3.91523437 30.90566406 -5.1171875 30.90234375 C-6.19597168 30.89710693 -7.27475586 30.89187012 -8.38623047 30.88647461 C-10.98232186 30.82116894 -10.98232186 30.82116894 -13 32 C-12.42608045 27.46216977 -11.22072505 23.85880484 -9.27734375 19.7265625 C-8.73916016 18.57285156 -8.20097656 17.41914062 -7.64648438 16.23046875 C-7.08251953 15.04066406 -6.51855469 13.85085938 -5.9375 12.625 C-5.36325687 11.40005599 -4.78968251 10.17479823 -4.21679688 8.94921875 C-2.81773993 5.96299637 -1.41196133 2.98013695 0 0 Z " fill="#78552F" transform="translate(623,541)"/>
<path d="M0 0 C3.08386104 -0.08099635 6.16559211 -0.14049524 9.25 -0.1875 C10.12269531 -0.21263672 10.99539063 -0.23777344 11.89453125 -0.26367188 C18.31211886 -0.3371557 18.31211886 -0.3371557 21.57421875 1.26171875 C23.26492852 3.32299505 23.56751702 4.35101537 23.5625 7 C23.58441406 7.680625 23.60632813 8.36125 23.62890625 9.0625 C23 11 23 11 21.046875 12.73828125 C16.85152927 14.47558468 13.17574597 14.32565437 8.6875 14.1875 C7.85154297 14.17396484 7.01558594 14.16042969 6.15429688 14.14648438 C4.10258502 14.11131217 2.05120725 14.05751048 0 14 C0 9.38 0 4.76 0 0 Z " fill="#F6EFDD" transform="translate(560,546)"/>
<path d="M0 0 C17.49 0 34.98 0 53 0 C53 3.3 53 6.6 53 10 C52.67 10 52.34 10 52 10 C52 7.03 52 4.06 52 1 C35.5 1 19 1 2 1 C2.33 4.96 2.66 8.92 3 13 C3.08634925 16.53868989 3.14090602 20.05627809 3.1328125 23.59375 C3.13376923 24.54713257 3.13472595 25.50051514 3.13571167 26.48278809 C3.1363859 28.47924873 3.13458508 30.47571166 3.13037109 32.47216797 C3.12501204 35.49321511 3.13034214 38.51411362 3.13671875 41.53515625 C3.13605783 43.49218782 3.13477639 45.4492193 3.1328125 47.40625 C3.13483673 48.29098999 3.13686096 49.17572998 3.13894653 50.08728027 C3.11430789 56.81953294 2.56404587 63.23144954 2 70 C19.49 70 36.98 70 55 70 C55 70.33 55 70.66 55 71 C36.85 71 18.7 71 0 71 C0 47.57 0 24.14 0 0 Z " fill="#6C4721" transform="translate(461,444)"/>
<path d="M0 0 C1.65 0 3.3 0 5 0 C5.33 7.92 5.66 15.84 6 24 C7.32 23.01 8.64 22.02 10 21 C10.99 21.99 11.98 22.98 13 24 C12.57847656 24.36609375 12.15695312 24.7321875 11.72265625 25.109375 C6.86798499 29.90693248 6.25505123 33.90444147 6.0078125 40.62109375 C6.00523437 41.40613281 6.00265625 42.19117188 6 43 C4.02 43 2.04 43 0 43 C0 28.81 0 14.62 0 0 Z " fill="#7D5B36" transform="translate(664,541)"/>
<path d="M0 0 C0.66 0.33 1.32 0.66 2 1 C1.67 5.95 1.34 10.9 1 16 C4.96 12.535 4.96 12.535 9 9 C9.66 9.66 10.32 10.32 11 11 C11.33 11 11.66 11 12 11 C12.3671875 13.640625 12.3671875 13.640625 12 17 C10.07210111 19.20499751 8.35085822 20.91124756 6.125 22.75 C5.56941406 23.23082031 5.01382813 23.71164063 4.44140625 24.20703125 C2.96900834 25.48074414 1.48512047 26.74114442 0 28 C-0.66 28.66 -1.32 29.32 -2 30 C-1.42415568 27.61435923 -0.77772405 25.33317216 0 23 C-0.99 23 -1.98 23 -3 23 C-3.66 23.66 -4.32 24.32 -5 25 C-5 17.74 -5 10.48 -5 3 C-3.68 3 -2.36 3 -1 3 C-0.67 2.01 -0.34 1.02 0 0 Z " fill="#714A22" transform="translate(841,210)"/>
<path d="M0 0 C6.6 0 13.2 0 20 0 C20 0.99 20 1.98 20 3 C20.66 3.33 21.32 3.66 22 4 C16.06 4 10.12 4 4 4 C4.01160156 5.42570313 4.02320313 6.85140625 4.03515625 8.3203125 C4.09451058 18.93546341 4.01068502 29.42390317 3 40 C2.01 40 1.02 40 0 40 C0 26.8 0 13.6 0 0 Z " fill="#744F27" transform="translate(768,542)"/>
<path d="M0 0 C2.39637414 2.39637414 3.0004135 4.42284953 3.34765625 7.7734375 C2.61121502 12.48997123 -1.36879862 15.26141836 -5 18 C-10.44371166 21.3373992 -15.25398593 23.1381884 -21.6875 23.0625 C-22.68136719 23.05347656 -23.67523437 23.04445313 -24.69921875 23.03515625 C-25.83810547 23.01775391 -25.83810547 23.01775391 -27 23 C-24.38921018 19.938757 -21.33023395 18.56514941 -17.75 16.8125 C-11.7717571 13.66710635 -7.9589455 10.40678842 -4 5 C-3.195625 4.01 -2.39125 3.02 -1.5625 2 C-1.046875 1.34 -0.53125 0.68 0 0 Z " fill="#774F27" transform="translate(862,238)"/>
<path d="M0 0 C3.43202302 2.77729863 4.91022334 6.64061811 6.6875 10.5625 C7.00783203 11.24763672 7.32816406 11.93277344 7.65820312 12.63867188 C10 17.72671242 10 17.72671242 10 20 C3.73 20 -2.54 20 -9 20 C-7.69045169 16.85290782 -6.37751869 13.70730538 -5.0625 10.5625 C-4.50272461 9.21575195 -4.50272461 9.21575195 -3.93164062 7.84179688 C-3.57392578 6.98779297 -3.21621094 6.13378906 -2.84765625 5.25390625 C-2.51773682 4.46314697 -2.18781738 3.6723877 -1.84790039 2.85766602 C-1 1 -1 1 0 0 Z " fill="#F6F0DD" transform="translate(625,548)"/>
<path d="M0 0 C0.33 0 0.66 0 1 0 C1.33 11.22 1.66 22.44 2 34 C2.66 34 3.32 34 4 34 C3.67854004 34.5662207 3.35708008 35.13244141 3.02587891 35.71582031 C1.92710244 38.16231069 1.69398432 39.88172002 1.5859375 42.546875 C1.54726563 43.39121094 1.50859375 44.23554688 1.46875 45.10546875 C1.4378125 45.97816406 1.406875 46.85085938 1.375 47.75 C1.33632813 48.63816406 1.29765625 49.52632813 1.2578125 50.44140625 C1.16379127 52.6273998 1.07813857 54.81339062 1 57 C1.66 57 2.32 57 3 57 C3.33 56.34 3.66 55.68 4 55 C4 59.29 4 63.58 4 68 C3.01 67.67 2.02 67.34 1 67 C1 67.66 1 68.32 1 69 C4.63 69 8.26 69 12 69 C12 54.15 12 39.3 12 24 C12.33 24 12.66 24 13 24 C13 39.18 13 54.36 13 70 C8.71 70 4.42 70 0 70 C0 46.9 0 23.8 0 0 Z " fill="#6D4822" transform="translate(883,445)"/>
<path d="M0 0 C0.33 0 0.66 0 1 0 C1.72816352 9.68862022 -0.36240578 16.12321793 -6.625 23.5625 C-8.4140625 25.56640625 -8.4140625 25.56640625 -10 27 C-10.66 27 -11.32 27 -12 27 C-12.74305146 16.78304246 -8.44165005 9.67476592 -2 2 C-1.34 1.34 -0.68 0.68 0 0 Z " fill="#F3EBD7" transform="translate(854,199)"/>
<path d="M0 0 C1.10408203 0.01353516 1.10408203 0.01353516 2.23046875 0.02734375 C4.0287888 0.05069856 5.82693911 0.08656164 7.625 0.125 C7.15191406 0.56585938 6.67882812 1.00671875 6.19140625 1.4609375 C4.28094026 3.49050985 3.640254 5.5530232 2.625 8.125 C1.635 8.62 1.635 8.62 0.625 9.125 C0.625 8.465 0.625 7.805 0.625 7.125 C-0.25542969 7.3415625 -1.13585937 7.558125 -2.04296875 7.78125 C-3.78513672 8.19890625 -3.78513672 8.19890625 -5.5625 8.625 C-6.71105469 8.9034375 -7.85960937 9.181875 -9.04296875 9.46875 C-11.94318829 10.03995385 -14.43596385 10.25783779 -17.375 10.125 C-17.705 9.135 -18.035 8.145 -18.375 7.125 C-19.035 6.795 -19.695 6.465 -20.375 6.125 C-13.55405111 1.25289365 -8.19423346 -0.19263117 0 0 Z " fill="#714B23" transform="translate(845.375,267.875)"/>
<path d="M0 0 C0.33 0 0.66 0 1 0 C1 4.62 1 9.24 1 14 C10.9 13.505 10.9 13.505 21 13 C21 13.66 21 14.32 21 15 C14.73 15 8.46 15 2 15 C2 15.66 2 16.32 2 17 C1.34 17 0.68 17 0 17 C0 22.28 0 27.56 0 33 C6.6 33 13.2 33 20 33 C20 33.33 20 33.66 20 34 C15.05 34.33 10.1 34.66 5 35 C5 35.33 5 35.66 5 36 C2.36 36 -0.28 36 -3 36 C-3 29.07 -3 22.14 -3 15 C-2.01 15 -1.02 15 0 15 C0 10.05 0 5.1 0 0 Z " fill="#83603B" transform="translate(559,546)"/>
<path d="M0 0 C0.33 1.32 0.66 2.64 1 4 C-6.26 4 -13.52 4 -21 4 C-21 9.28 -21 14.56 -21 20 C-12.42 20 -3.84 20 5 20 C5 20.33 5 20.66 5 21 C-3.91 21 -12.82 21 -22 21 C-22.04125 18.07125 -22.0825 15.1425 -22.125 12.125 C-22.14320801 11.20348145 -22.16141602 10.28196289 -22.18017578 9.33251953 C-22.1851709 8.60661621 -22.19016602 7.88071289 -22.1953125 7.1328125 C-22.21102295 6.01737061 -22.21102295 6.01737061 -22.22705078 4.87939453 C-22 3 -22 3 -20 1 C-17.93701172 0.68115234 -17.93701172 0.68115234 -15.4296875 0.5859375 C-14.08583984 0.52792969 -14.08583984 0.52792969 -12.71484375 0.46875 C-11.77769531 0.4378125 -10.84054687 0.406875 -9.875 0.375 C-8.93011719 0.33632813 -7.98523438 0.29765625 -7.01171875 0.2578125 C-4.67467625 0.16338654 -2.33764499 0.07781606 0 0 Z " fill="#6B4924" transform="translate(743,560)"/>
<path d="M0 0 C2 2 2 2 2 5.5625 C1.979375 6.27792969 1.95875 6.99335938 1.9375 7.73046875 C2.00255328 10.09271608 2.41537139 12.08926452 3 14.375 C4.21432289 19.2750494 4.1886964 23.97857916 4 29 C-0.30715065 25.2595797 -1.86055401 22.57251449 -3 17 C-2.97701646 14.16187081 -2.6184068 11.42718431 -2.1875 8.625 C-2.09146484 7.90183594 -1.99542969 7.17867187 -1.89648438 6.43359375 C-1.15926595 1.15926595 -1.15926595 1.15926595 0 0 Z " fill="#764A1D" transform="translate(816,223)"/>
<path d="M0 0 C2.7708983 -0.02696009 5.5415345 -0.04681952 8.3125 -0.0625 C9.09818359 -0.07087891 9.88386719 -0.07925781 10.69335938 -0.08789062 C11.45068359 -0.09111328 12.20800781 -0.09433594 12.98828125 -0.09765625 C13.68477783 -0.10289307 14.38127441 -0.10812988 15.09887695 -0.11352539 C17 0 17 0 20 1 C20 2.32 20 3.64 20 5 C14.5013583 6.89106725 10.02149693 7.18311408 4.25 6.75 C3.11884766 6.69005859 3.11884766 6.69005859 1.96484375 6.62890625 C-1.7844145 6.3825074 -3.81763419 6.12157721 -7 4 C-6.28972656 3.95101563 -5.57945312 3.90203125 -4.84765625 3.8515625 C-3.46900391 3.73941406 -3.46900391 3.73941406 -2.0625 3.625 C-1.14597656 3.55539062 -0.22945312 3.48578125 0.71484375 3.4140625 C1.84599609 3.20910156 1.84599609 3.20910156 3 3 C3.33 2.34 3.66 1.68 4 1 C2.68 0.67 1.36 0.34 0 0 Z " fill="#784D23" transform="translate(817,341)"/>
<path d="M0 0 C0.33 0 0.66 0 1 0 C1 6.6 1 13.2 1 20 C4.3 20 7.6 20 11 20 C10.01 20.66 9.02 21.32 8 22 C9.65 22.33 11.3 22.66 13 23 C13 23.33 13 23.66 13 24 C9.04 24 5.08 24 1 24 C1 28.62 1 33.24 1 38 C-0.65 38 -2.3 38 -4 38 C-4 37.34 -4 36.68 -4 36 C-3.01 36 -2.02 36 -1 36 C-1.01160156 35.24460937 -1.02320313 34.48921875 -1.03515625 33.7109375 C-1.12743385 22.45306987 -0.57408504 11.24046293 0 0 Z " fill="#7B5D3A" transform="translate(772,546)"/>
<path d="M0 0 C0.66 0.66 1.32 1.32 2 2 C2.66 1.67 3.32 1.34 4 1 C4.31453125 1.59167969 4.6290625 2.18335938 4.953125 2.79296875 C7.34440997 7.20820275 9.81175359 11.10325438 13 15 C13 15.66 13 16.32 13 17 C10.2734375 17.359375 10.2734375 17.359375 7 17 C4.6640625 14.515625 4.6640625 14.515625 2.625 11.25 C1.93664062 10.18265625 1.24828125 9.1153125 0.5390625 8.015625 C-1 5 -1 5 -1 1 C-0.67 0.67 -0.34 0.34 0 0 Z " fill="#7B5934" transform="translate(789,567)"/>
<path d="M0 0 C0.33 0.66 0.66 1.32 1 2 C1.66 2 2.32 2 3 2 C3 2.99 3 3.98 3 5 C-17.20708548 13.92215118 -17.20708548 13.92215118 -24 12 C-23.48614746 11.77860352 -22.97229492 11.55720703 -22.44287109 11.32910156 C-20.0842452 10.30878219 -17.72964442 9.27947244 -15.375 8.25 C-14.56675781 7.90195312 -13.75851562 7.55390625 -12.92578125 7.1953125 C-8.27613106 5.15400266 -4.1259263 2.96425773 0 0 Z " fill="#755431" transform="translate(739,383)"/>
<path d="M0 0 C3.18677587 1.7099773 4.67138444 3.29318205 6.5625 6.375 C6.8125 9.6875 6.8125 9.6875 6.5625 12.375 C5.5725 12.87 5.5725 12.87 4.5625 13.375 C4.418125 12.240625 4.27375 11.10625 4.125 9.9375 C3.95078522 6.56722799 3.95078522 6.56722799 2.5625 5.375 C2.2325 7.685 1.9025 9.995 1.5625 12.375 C1.2325 12.375 0.9025 12.375 0.5625 12.375 C0.27375 11.240625 -0.015 10.10625 -0.3125 8.9375 C-0.68375 7.761875 -1.055 6.58625 -1.4375 5.375 C-3.73058963 4.22845518 -5.23659656 4.17770883 -7.7890625 4.05859375 C-8.63984375 4.01669922 -9.490625 3.97480469 -10.3671875 3.93164062 C-11.25664063 3.89232422 -12.14609375 3.85300781 -13.0625 3.8125 C-13.9596875 3.76931641 -14.856875 3.72613281 -15.78125 3.68164062 C-17.99984283 3.57543139 -20.2185488 3.47338806 -22.4375 3.375 C-22.4375 3.045 -22.4375 2.715 -22.4375 2.375 C-16.8275 2.375 -11.2175 2.375 -5.4375 2.375 C-5.4375 1.715 -5.4375 1.055 -5.4375 0.375 C-2.4375 -0.625 -2.4375 -0.625 0 0 Z " fill="#846441" transform="translate(582.4375,542.625)"/>
<path d="M0 0 C0.33 0 0.66 0 1 0 C1.06058594 0.96421875 1.12117187 1.9284375 1.18359375 2.921875 C1.26738281 4.18515625 1.35117187 5.4484375 1.4375 6.75 C1.55931641 8.62945312 1.55931641 8.62945312 1.68359375 10.546875 C1.92515522 13.18317553 2.24283934 15.48037294 3 18 C2.01 17.67 1.02 17.34 0 17 C0 16.01 0 15.02 0 14 C-0.66 14 -1.32 14 -2 14 C-2 12.68 -2 11.36 -2 10 C-2.99 10 -3.98 10 -5 10 C-5.12375 10.7425 -5.2475 11.485 -5.375 12.25 C-5.95486701 14.80141485 -6.73708739 16.7267573 -8 19 C-8.66 19 -9.32 19 -10 19 C-8.65610276 14.49558061 -6.84328221 10.7205754 -4.4375 6.6875 C-3.50744141 5.11548828 -3.50744141 5.11548828 -2.55859375 3.51171875 C-1 1 -1 1 0 0 Z " fill="#866643" transform="translate(786,260)"/>
<path d="M0 0 C0 0.66 0 1.32 0 2 C1.98 1.34 3.96 0.68 6 0 C6 1.32 6 2.64 6 4 C2.28281921 5.71301774 -0.60389349 6.24878195 -4.6875 6.1875 C-6.11642578 6.17783203 -6.11642578 6.17783203 -7.57421875 6.16796875 C-10 6 -10 6 -12 5 C-12 4.34 -12 3.68 -12 3 C-10.56445975 2.49440092 -9.1264798 1.9957251 -7.6875 1.5 C-6.88699219 1.2215625 -6.08648438 0.943125 -5.26171875 0.65625 C-3 0 -3 0 0 0 Z " fill="#7A532D" transform="translate(830,289)"/>
<path d="M0 0 C1.66666667 0 3.33333333 0 5 0 C4.39254603 4.85963179 2.27241033 8.7405518 0 13 C-1.65 13 -3.3 13 -5 13 C-4.54554036 11.58208592 -4.08625056 10.16571954 -3.625 8.75 C-3.24214844 7.56664062 -3.24214844 7.56664062 -2.8515625 6.359375 C-2.04826333 4.13372042 -1.10288338 2.09068328 0 0 Z " fill="#826340" transform="translate(609,571)"/>
<path d="M0 0 C0.66 0.66 1.32 1.32 2 2 C-1.3061561 6.77555881 -1.3061561 6.77555881 -4.11328125 7.68359375 C-7.95841736 8.10504981 -11.64857054 7.89107457 -15.5 7.625 C-16.61955078 7.55925781 -16.61955078 7.55925781 -17.76171875 7.4921875 C-21.5874292 7.24842542 -25.25587458 6.87660079 -29 6 C-29 5.67 -29 5.34 -29 5 C-20.09 4.67 -11.18 4.34 -2 4 C-1.34 2.68 -0.68 1.36 0 0 Z " fill="#6E4C27" transform="translate(588,575)"/>
<path d="M0 0 C3.62592996 0.08060591 7.25014402 0.19346817 10.875 0.3125 C12.42380859 0.34633789 12.42380859 0.34633789 14.00390625 0.38085938 C14.99003906 0.41630859 15.97617187 0.45175781 16.9921875 0.48828125 C17.90339355 0.51446533 18.81459961 0.54064941 19.75341797 0.56762695 C20.49479004 0.71031006 21.23616211 0.85299316 22 1 C22.66 1.99 23.32 2.98 24 4 C20.04172765 4.05785647 16.0835633 4.09354717 12.125 4.125 C10.99707031 4.14175781 9.86914062 4.15851562 8.70703125 4.17578125 C7.09248047 4.18544922 7.09248047 4.18544922 5.4453125 4.1953125 C3.95281982 4.21102295 3.95281982 4.21102295 2.43017578 4.22705078 C0 4 0 4 -2 2 C-1.34 2 -0.68 2 0 2 C0 1.34 0 0.68 0 0 Z M-4 3 C-3.01 3.495 -3.01 3.495 -2 4 C-2.99 4.495 -2.99 4.495 -4 5 C-4 4.34 -4 3.68 -4 3 Z " fill="#6C461F" transform="translate(614,568)"/>
<path d="M0 0 C0.84925049 -0.00902344 1.69850098 -0.01804687 2.57348633 -0.02734375 C3.7746106 -0.02154297 3.7746106 -0.02154297 5 -0.015625 C5.721875 -0.01336914 6.44375 -0.01111328 7.1875 -0.00878906 C9 0.25 9 0.25 11 2.25 C10.05362671 2.28758423 10.05362671 2.28758423 9.08813477 2.32592773 C6.24603175 2.44154137 3.40428917 2.56442316 0.5625 2.6875 C-0.92733398 2.74647461 -0.92733398 2.74647461 -2.44726562 2.80664062 C-3.86362305 2.86948242 -3.86362305 2.86948242 -5.30859375 2.93359375 C-6.62041626 2.98858032 -6.62041626 2.98858032 -7.95874023 3.04467773 C-9.9927402 3.03181066 -9.9927402 3.03181066 -11 4.25 C-13.67058851 4.39115161 -16.32432238 4.29247107 -19 4.25 C-19.33 3.59 -19.66 2.93 -20 2.25 C-13.27760322 0.48674839 -6.91543334 0.03118279 0 0 Z " fill="#83613C" transform="translate(710,275.75)"/>
<path d="M0 0 C0.66 0 1.32 0 2 0 C2.83790789 1.78953185 3.67019396 3.58169695 4.5 5.375 C4.9640625 6.37273438 5.428125 7.37046875 5.90625 8.3984375 C7 11 7 11 7 13 C5.35 13 3.7 13 2 13 C-2.04847397 6.7432675 -2.04847397 6.7432675 -1.8125 3.125 C-1 1 -1 1 0 0 Z " fill="#7A5733" transform="translate(641,571)"/>
<path d="M0 0 C1.11503906 -0.01417969 2.23007812 -0.02835938 3.37890625 -0.04296875 C6.32241377 0.17882811 7.9581192 0.6537999 10.4375 2.1875 C-5.81610231 6.06069885 -5.81610231 6.06069885 -11.5625 3.1875 C-11.5625 2.5275 -11.5625 1.8675 -11.5625 1.1875 C-7.6636916 0.27656346 -4.00078023 0.02317949 0 0 Z " fill="#EFE5D0" transform="translate(695.5625,205.8125)"/>
<path d="M0 0 C1.5078125 1.4609375 1.5078125 1.4609375 3.125 3.375 C3.66382813 4.00148438 4.20265625 4.62796875 4.7578125 5.2734375 C6 7 6 7 6 9 C6.66 9 7.32 9 8 9 C8 9.66 8 10.32 8 11 C3.96115115 11.46963359 2.45878506 11.35683282 -0.8125 8.8125 C-2.9882377 6.01512296 -3.70197895 4.47691229 -4 1 C-2 0 -2 0 0 0 Z " fill="#765B3D" transform="translate(693,573)"/>
<path d="M0 0 C1.33902462 4.68926958 1.22259018 9.28031394 1.25 14.125 C1.270625 15.04410156 1.29125 15.96320313 1.3125 16.91015625 C1.31765625 17.78800781 1.3228125 18.66585938 1.328125 19.5703125 C1.3374707 20.37227051 1.34681641 21.17422852 1.35644531 22.00048828 C1.23881836 22.66032715 1.12119141 23.32016602 1 24 C0.01 24.66 -0.98 25.32 -2 26 C-2.05449228 23.16640156 -2.09390733 20.33387515 -2.125 17.5 C-2.14175781 16.70851563 -2.15851562 15.91703125 -2.17578125 15.1015625 C-2.21989226 9.72001921 -1.50594058 5.17000073 0 0 Z " fill="#815C36" transform="translate(613,324)"/>
<path d="M0 0 C2.42711525 2.42711525 2.91848256 4.51685064 3.3125 7.890625 C2.88788602 10.75676934 1.74581889 11.6512219 -0.4375 13.5 C-1.60598847 14.35978799 -2.78829587 15.2022696 -4 16 C-4.33 15.34 -4.66 14.68 -5 14 C-5.66 13.67 -6.32 13.34 -7 13 C-6.55527344 12.54109375 -6.11054687 12.0821875 -5.65234375 11.609375 C-5.08644531 10.99578125 -4.52054688 10.3821875 -3.9375 9.75 C-3.36902344 9.14671875 -2.80054688 8.5434375 -2.21484375 7.921875 C-0.7304701 6.06729932 -0.7304701 6.06729932 -1.44140625 3.890625 C-1.62574219 3.26671875 -1.81007813 2.6428125 -2 2 C-1.34 1.34 -0.68 0.68 0 0 Z " fill="#6F4720" transform="translate(862,238)"/>
<path d="M0 0 C0.99 0 1.98 0 3 0 C3 2.97 3 5.94 3 9 C-3.27 9 -9.54 9 -16 9 C-16 8.34 -16 7.68 -16 7 C-10.72 7 -5.44 7 0 7 C0 4.69 0 2.38 0 0 Z " fill="#835B30" transform="translate(513,505)"/>
<path d="M0 0 C0.94875 0.04125 1.8975 0.0825 2.875 0.125 C1.36854062 3.95962387 -0.85882553 5.69435854 -4.125 8.125 C-5.053125 8.8675 -5.98125 9.61 -6.9375 10.375 C-7.659375 10.9525 -8.38125 11.53 -9.125 12.125 C-9.785 11.795 -10.445 11.465 -11.125 11.125 C-10.691875 10.568125 -10.25875 10.01125 -9.8125 9.4375 C-8.06891934 7.12371116 -8.06891934 7.12371116 -6.5625 4.5 C-3.93406149 0.15736246 -3.93406149 0.15736246 0 0 Z " fill="#7D5E3A" transform="translate(696.125,540.875)"/>
<path d="M0 0 C1 3 1 3 0.22265625 5.04296875 C-0.16019531 5.75066406 -0.54304687 6.45835937 -0.9375 7.1875 C-1.31777344 7.90292969 -1.69804688 8.61835937 -2.08984375 9.35546875 C-2.39019531 9.89816406 -2.69054687 10.44085937 -3 11 C-3.66 11 -4.32 11 -5 11 C-5 11.66 -5 12.32 -5 13 C-6.32 13.33 -7.64 13.66 -9 14 C-8.01 11.03 -7.02 8.06 -6 5 C-5.01 5 -4.02 5 -3 5 C-3 4.34 -3 3.68 -3 3 C-1.5 1.375 -1.5 1.375 0 0 Z " fill="#73502B" transform="translate(619,557)"/>
<path d="M0 0 C3.5135629 0.16176625 5.51458967 0.88958967 8.0625 3.4375 C6.79831754 4.13715443 5.52584598 4.82184763 4.25 5.5 C3.54230469 5.88285156 2.83460938 6.26570312 2.10546875 6.66015625 C0.0625 7.4375 0.0625 7.4375 -2.9375 6.4375 C-2.6075 5.7775 -2.2775 5.1175 -1.9375 4.4375 C-3.5875 4.4375 -5.2375 4.4375 -6.9375 4.4375 C-5.08458892 0.73167784 -4.23183352 0.47020372 0 0 Z M1.0625 1.4375 C0.7325 2.4275 0.4025 3.4175 0.0625 4.4375 C1.0525 4.4375 2.0425 4.4375 3.0625 4.4375 C2.7325 3.4475 2.4025 2.4575 2.0625 1.4375 C1.7325 1.4375 1.4025 1.4375 1.0625 1.4375 Z " fill="#714A22" transform="translate(847.9375,236.5625)"/>
<path d="M0 0 C1.65 0 3.3 0 5 0 C5.66 1.32 6.32 2.64 7 4 C6.01 4.33 5.02 4.66 4 5 C3.34 4.67 2.68 4.34 2 4 C2 4.66 2 5.32 2 6 C2.66 6 3.32 6 4 6 C3.67 6.66 3.34 7.32 3 8 C1.02 8 -0.96 8 -3 8 C-1.125 2.25 -1.125 2.25 0 0 Z " fill="#815F3A" transform="translate(623,541)"/>
<path d="M0 0 C0.99 0.33 1.98 0.66 3 1 C3.33 4.96 3.66 8.92 4 13 C3.34 13 2.68 13 2 13 C1.16151196 11.54462432 0.32936066 10.08559627 -0.5 8.625 C-1.19609375 7.40683594 -1.19609375 7.40683594 -1.90625 6.1640625 C-3 4 -3 4 -3 2 C-2.01 2 -1.02 2 0 2 C0 1.34 0 0.68 0 0 Z " fill="#7B5D3A" transform="translate(798,272)"/>
<path d="M0 0 C1.89213369 2.38573379 3.02391783 4.07175348 4 7 C3.58789525 10.29683798 2.48440102 11.83965128 0 14 C-0.12375 13.360625 -0.2475 12.72125 -0.375 12.0625 C-0.58125 11.381875 -0.7875 10.70125 -1 10 C-1.66 9.67 -2.32 9.34 -3 9 C-2.30058404 5.85262818 -1.23921302 2.97411124 0 0 Z " fill="#7E572D" transform="translate(853,212)"/>
<path d="M0 0 C0.33 0 0.66 0 1 0 C1 6.6 1 13.2 1 20 C4.3 20 7.6 20 11 20 C10.01 20.99 9.02 21.98 8 23 C5.03 23 2.06 23 -1 23 C-0.67 15.41 -0.34 7.82 0 0 Z " fill="#8C6E4A" transform="translate(772,546)"/>
<path d="M0 0 C0 3.74016583 -0.9341591 4.45276193 -3.375 7.1875 C-4.00148438 7.90292969 -4.62796875 8.61835938 -5.2734375 9.35546875 C-7 11 -7 11 -9 11 C-9 11.66 -9 12.32 -9 13 C-10.6796875 14.69140625 -10.6796875 14.69140625 -12.875 16.5625 C-13.59429688 17.18253906 -14.31359375 17.80257813 -15.0546875 18.44140625 C-17 20 -17 20 -19 21 C-17.54254576 17.63664406 -15.68882146 15.45465995 -13.0859375 12.890625 C-12.32539062 12.13652344 -11.56484375 11.38242187 -10.78125 10.60546875 C-9.9871875 9.82816406 -9.193125 9.05085938 -8.375 8.25 C-7.57320312 7.45722656 -6.77140625 6.66445313 -5.9453125 5.84765625 C-3.96797154 3.89385507 -1.98611091 1.94487897 0 0 Z " fill="#704D29" transform="translate(774,328)"/>
<path d="M0 0 C0.33 0 0.66 0 1 0 C1 4.95 1 9.9 1 15 C-0.65 15 -2.3 15 -4 15 C-4 12.69 -4 10.38 -4 8 C-3.01 7.67 -2.02 7.34 -1 7 C-0.67 4.69 -0.34 2.38 0 0 Z " fill="#806240" transform="translate(836,569)"/>
<path d="M0 0 C1.21474475 3.64423425 0.70193132 4.28488743 -0.87109375 7.66796875 C-1.28037109 8.56064453 -1.68964844 9.45332031 -2.11132812 10.37304688 C-2.54896484 11.30181641 -2.98660156 12.23058594 -3.4375 13.1875 C-3.87126953 14.12787109 -4.30503906 15.06824219 -4.75195312 16.03710938 C-5.82600195 18.36224805 -6.90894188 20.6828064 -8 23 C-8.66 23 -9.32 23 -10 23 C-9.21068753 19.1400695 -7.67438909 15.67388701 -6.125 12.0625 C-5.61195313 10.85722656 -5.09890625 9.65195312 -4.5703125 8.41015625 C-3.21036449 5.45683632 -1.73818271 2.7425817 0 0 Z " fill="#F6EAD3" transform="translate(615,555)"/>
<path d="M0 0 C0.33 0.99 0.66 1.98 1 3 C0.37955811 3.59687622 0.37955811 3.59687622 -0.25341797 4.20581055 C-2.13523816 6.02500909 -4.00511595 7.85603822 -5.875 9.6875 C-6.52597656 10.31333984 -7.17695312 10.93917969 -7.84765625 11.58398438 C-11.14281128 14.8281834 -13.75252868 17.40544013 -15 22 C-15.66 21.67 -16.32 21.34 -17 21 C-16.42163785 17.47257313 -15.2076803 15.85855486 -12.65625 13.3984375 C-11.98722656 12.74359375 -11.31820312 12.08875 -10.62890625 11.4140625 C-9.92636719 10.74117187 -9.22382812 10.06828125 -8.5 9.375 C-7.11250656 8.03078617 -5.726989 6.6845289 -4.34375 5.3359375 C-3.72693359 4.74345215 -3.11011719 4.1509668 -2.47460938 3.54052734 C-0.9012493 2.04867922 -0.9012493 2.04867922 0 0 Z " fill="#EDE2CB" transform="translate(699,541)"/>
<path d="M0 0 C0.66 0 1.32 0 2 0 C2 7.26 2 14.52 2 22 C1.34 22 0.68 22 0 22 C-1.28923485 18.13229545 -1.14505706 14.46562684 -1.125 10.4375 C-1.12886719 9.65697266 -1.13273438 8.87644531 -1.13671875 8.07226562 C-1.12667749 2.25335498 -1.12667749 2.25335498 0 0 Z " fill="#F8ECD6" transform="translate(644,329)"/>
<path d="M0 0 C0.33 0.99 0.66 1.98 1 3 C-0.98 3.99 -2.96 4.98 -5 6 C-4.01 7.485 -4.01 7.485 -3 9 C-6.63 9 -10.26 9 -14 9 C-11.13876416 6.13876416 -8.84719268 4.68380789 -5.3125 2.8125 C-4.31863281 2.28269531 -3.32476563 1.75289062 -2.30078125 1.20703125 C-1.54152344 0.80871094 -0.78226563 0.41039062 0 0 Z " fill="#745838" transform="translate(849,252)"/>
<path d="M0 0 C4.51854431 1.98972775 7.21445201 4.98122179 10 9 C10.875 11.9375 10.875 11.9375 11 14 C9.68 14.33 8.36 14.66 7 15 C6.67 12.03 6.34 9.06 6 6 C4.68 6.33 3.36 6.66 2 7 C2.33 6.01 2.66 5.02 3 4 C1.62831762 1.80961577 1.62831762 1.80961577 0 0 Z " fill="#724D28" transform="translate(849,451)"/>
<path d="M0 0 C0.8971875 0.309375 0.8971875 0.309375 1.8125 0.625 C0.8225 1.12 0.8225 1.12 -0.1875 1.625 C-0.1875 2.285 -0.1875 2.945 -0.1875 3.625 C0.4725 3.955 1.1325 4.285 1.8125 4.625 C-2.9375 7.625 -2.9375 7.625 -5.1875 7.625 C-5.1875 6.965 -5.1875 6.305 -5.1875 5.625 C-5.8475 5.625 -6.5075 5.625 -7.1875 5.625 C-5.69046729 2.17030914 -4.27938051 -0.73360809 0 0 Z " fill="#714D26" transform="translate(747.1875,379.375)"/>
<path d="M0 0 C0 3 0 3 -1.93359375 5.19140625 C-2.75988281 5.97386719 -3.58617187 6.75632812 -4.4375 7.5625 C-7.63841178 10.46895693 -7.63841178 10.46895693 -10 14 C-10.66 14 -11.32 14 -12 14 C-12 14.66 -12 15.32 -12 16 C-12.99 16.33 -13.98 16.66 -15 17 C-15.66 16.67 -16.32 16.34 -17 16 C-17 15.34 -17 14.68 -17 14 C-16.05125 13.54625 -15.1025 13.0925 -14.125 12.625 C-8.54308967 9.48445908 -4.36738209 4.6046443 0 0 Z " fill="#694621" transform="translate(691,548)"/>
<path d="M0 0 C2.8203125 -0.29296875 2.8203125 -0.29296875 6.125 -0.1875 C7.76855469 -0.14689453 7.76855469 -0.14689453 9.4453125 -0.10546875 C10.28835938 -0.07066406 11.13140625 -0.03585937 12 0 C12 0.66 12 1.32 12 2 C13.65 2 15.3 2 17 2 C17 2.33 17 2.66 17 3 C10.73 3 4.46 3 -2 3 C-1.34 2.01 -0.68 1.02 0 0 Z " fill="#EDE1CD" transform="translate(677,377)"/>
<path d="M0 0 C1.19882812 0.15275391 1.19882812 0.15275391 2.421875 0.30859375 C3.02515625 0.39238281 3.6284375 0.47617187 4.25 0.5625 C3.92 1.5525 3.59 2.5425 3.25 3.5625 C-0.38 3.5625 -4.01 3.5625 -7.75 3.5625 C-8.08 2.5725 -8.41 1.5825 -8.75 0.5625 C-5.62819599 -0.40411363 -3.22916205 -0.42738909 0 0 Z " fill="#845D34" transform="translate(816.75,341.4375)"/>
<path d="M0 0 C1.875 0.625 1.875 0.625 4 2 C5.95120729 6.55281701 6.21780252 10.4564662 6.125 15.375 C6.10695313 16.62023437 6.08890625 17.86546875 6.0703125 19.1484375 C6.04710937 20.08945312 6.02390625 21.03046875 6 22 C3.97441119 18.65060119 3.78261013 16.13037449 3.875 12.25 C3.90207031 10.77273438 3.90207031 10.77273438 3.9296875 9.265625 C3.96449219 8.14414062 3.96449219 8.14414062 4 7 C3.34 7 2.68 7 2 7 C2 5.35 2 3.7 2 2 C1.34 2 0.68 2 0 2 C0 1.34 0 0.68 0 0 Z " fill="#7D5D39" transform="translate(857,357)"/>
<path d="M0 0 C2.31 0.33 4.62 0.66 7 1 C7.625 3.375 7.625 3.375 8 6 C7.34 6.66 6.68 7.32 6 8 C4 6.625 4 6.625 2 5 C2 4.34 2 3.68 2 3 C1.34 3 0.68 3 0 3 C0 2.01 0 1.02 0 0 Z " fill="#7C5A34" transform="translate(788,542)"/>
<path d="M0 0 C0.33 0 0.66 0 1 0 C1.185625 1.2065625 1.185625 1.2065625 1.375 2.4375 C1.58125 3.283125 1.7875 4.12875 2 5 C2.66 5.33 3.32 5.66 4 6 C3.50269348 10.97306516 2.44697666 14.63799813 0 19 C-1.35862973 15.09519751 -0.89469712 11.2898224 -0.5625 7.25 C-0.48418945 6.20392578 -0.48418945 6.20392578 -0.40429688 5.13671875 C-0.27525928 3.42403797 -0.13840386 1.71194934 0 0 Z " fill="#E1D3BC" transform="translate(863,473)"/>
<path d="M0 0 C7.07721931 -0.12109311 13.97195301 0.14626761 21 1 C20.67 1.66 20.34 2.32 20 3 C6.3667426 3.3690205 6.3667426 3.3690205 0 1 C0 0.67 0 0.34 0 0 Z " fill="#714B25" transform="translate(680,279)"/>
<path d="M0 0 C0.66 0.99 1.32 1.98 2 3 C2.66 2.67 3.32 2.34 4 2 C5.60725635 5.21451269 5.05748185 8.43612536 5 12 C4.01 10.68 3.02 9.36 2 8 C1.34 9.32 0.68 10.64 0 12 C-1.53166168 7.91556885 -0.63081652 4.20544343 0 0 Z " fill="#6C461E" transform="translate(856,198)"/>
<path d="M0 0 C3.23772838 1.07924279 3.86999864 1.75143068 5.9375 4.3125 C8.1728826 7.02171682 10.46464284 9.56215658 13 12 C12.34 12.66 11.68 13.32 11 14 C2.3690205 5.92255125 2.3690205 5.92255125 0 0 Z " fill="#7A5935" transform="translate(618,368)"/>
<path d="M0 0 C0.33 0.66 0.66 1.32 1 2 C-0.23714895 5.71144684 -1.75917971 6.67080695 -4.8125 9.0625 C-5.68519531 9.75472656 -6.55789063 10.44695312 -7.45703125 11.16015625 C-9.5989984 12.70987442 -11.59801842 13.91938824 -14 15 C-9.59156563 9.70987876 -4.92440206 4.81191572 0 0 Z " fill="#EBE0C9" transform="translate(785,331)"/>
<path d="M0 0 C4.29 0.66 8.58 1.32 13 2 C13 2.33 13 2.66 13 3 C5.08 3.33 -2.84 3.66 -11 4 C-9 2 -9 2 -6.8359375 1.8046875 C-5.61777344 1.83949219 -5.61777344 1.83949219 -4.375 1.875 C-3.14910156 1.90207031 -3.14910156 1.90207031 -1.8984375 1.9296875 C-0.95871094 1.96449219 -0.95871094 1.96449219 0 2 C0 1.34 0 0.68 0 0 Z " fill="#F9EDD6" transform="translate(690,189)"/>
<path d="M0 0 C1.65 0 3.3 0 5 0 C3.33333333 3.33333333 1.66666667 6.66666667 0 10 C-1.125 8.375 -1.125 8.375 -2 6 C-1.125 2.75 -1.125 2.75 0 0 Z " fill="#7F6240" transform="translate(849,541)"/>
<path d="M0 0 C0 0.66 0 1.32 0 2 C-6.93 1.67 -13.86 1.34 -21 1 C-21 0.67 -21 0.34 -21 0 C-3.58536585 -1.79268293 -3.58536585 -1.79268293 0 0 Z " fill="#DFCEB3" transform="translate(839,340)"/>
<path d="M0 0 C0.99 0.33 1.98 0.66 3 1 C3.33 1.99 3.66 2.98 4 4 C1.69 5.98 -0.62 7.96 -3 10 C-3.33 9.01 -3.66 8.02 -4 7 C-3.01 7 -2.02 7 -1 7 C-1 6.01 -1 5.02 -1 4 C-1.66 3.67 -2.32 3.34 -3 3 C-2.01 2.01 -1.02 1.02 0 0 Z " fill="#7D5E39" transform="translate(673,562)"/>
<path d="M0 0 C0.33 1.65 0.66 3.3 1 5 C-2.3 4.67 -5.6 4.34 -9 4 C-5 0 -5 0 0 0 Z " fill="#6D4620" transform="translate(796,348)"/>
<path d="M0 0 C2 2 2 2 2.1953125 5.0390625 C2.17210937 6.22242188 2.14890625 7.40578125 2.125 8.625 C2.10695313 9.81351562 2.08890625 11.00203125 2.0703125 12.2265625 C2.04710937 13.14179688 2.02390625 14.05703125 2 15 C-0.56224053 12.04668066 -1.38076344 10.28482692 -1.25 6.375 C-1.23453125 5.59898437 -1.2190625 4.82296875 -1.203125 4.0234375 C-1 2 -1 2 0 0 Z " fill="#6E4821" transform="translate(792,287)"/>
<path d="M0 0 C0.99 0 1.98 0 3 0 C4.40457737 2.80915474 4.24895157 4.88810534 4 8 C2.5 10.375 2.5 10.375 1 12 C0.01751476 7.9472484 -0.08159574 4.16138263 0 0 Z " fill="#84633F" transform="translate(725,281)"/>
<path d="M0 0 C0.66 0 1.32 0 2 0 C2.63019694 9.99562363 2.63019694 9.99562363 0 14.1875 C-0.66 14.785625 -1.32 15.38375 -2 16 C-2 14.02 -2 12.04 -2 10 C-1.67 10 -1.34 10 -1 10 C-0.67 6.7 -0.34 3.4 0 0 Z " fill="#80603E" transform="translate(758,224)"/>
<path d="M0 0 C2.3125 -0.3125 2.3125 -0.3125 5 0 C6.8125 2.5 6.8125 2.5 8 5 C6.35 5.66 4.7 6.32 3 7 C0 2.25 0 2.25 0 0 Z " fill="#7F613E" transform="translate(815,541)"/>
<path d="M0 0 C2.31 0 4.62 0 7 0 C7 0.66 7 1.32 7 2 C5.3767313 2.6708712 3.75132422 3.33657029 2.125 4 C0.76761719 4.556875 0.76761719 4.556875 -0.6171875 5.125 C-3 6 -3 6 -5 6 C-4.34 4.68 -3.68 3.36 -3 2 C-2.01 2 -1.02 2 0 2 C0 1.34 0 0.68 0 0 Z " fill="#F5EBD4" transform="translate(809,441)"/>
<path d="M0 0 C0.33 0 0.66 0 1 0 C1.53469558 4.44919531 1.80315524 8.5747721 1 13 C-1.61433282 15.86914109 -4.46086155 17.46216008 -8 19 C-8 18.01 -8 17.02 -8 16 C-7.05125 15.525625 -6.1025 15.05125 -5.125 14.5625 C-2.45934541 12.98448278 -2.03652056 12.12663842 -1.15625 9.07421875 C-0.67311836 6.05109355 -0.27800716 3.0484923 0 0 Z " fill="#E5D7BD" transform="translate(801,552)"/>
<path d="M0 0 C2.475 0.99 2.475 0.99 5 2 C2.57869669 4.42130331 1.19888623 4.52840504 -2.125 5.125 C-3.03507813 5.29257812 -3.94515625 5.46015625 -4.8828125 5.6328125 C-5.58148437 5.75398437 -6.28015625 5.87515625 -7 6 C-7 5.01 -7 4.02 -7 3 C-3.535 2.505 -3.535 2.505 0 2 C0 1.34 0 0.68 0 0 Z " fill="#805B35" transform="translate(653,510)"/>
<path d="M0 0 C0.66 0.33 1.32 0.66 2 1 C1.67 1.33 1.34 1.66 1 2 C1.99 2.66 2.98 3.32 4 4 C2.730447 4.64834654 1.45930294 5.29357815 0.1875 5.9375 C-0.52019531 6.29714844 -1.22789062 6.65679687 -1.95703125 7.02734375 C-4 8 -4 8 -7 9 C-5.44499019 5.18315774 -2.96404505 2.80804268 0 0 Z " fill="#F2E3C8" transform="translate(848,230)"/>
<path d="M0 0 C1.66666667 0 3.33333333 0 5 0 C4.50168276 3.68754757 3.89932357 5.60490662 1 8 C1 7.34 1 6.68 1 6 C0.34 6 -0.32 6 -1 6 C-0.67 4.02 -0.34 2.04 0 0 Z " fill="#795530" transform="translate(609,571)"/>
<path d="M0 0 C0 0.66 0 1.32 0 2 C-0.66 2 -1.32 2 -2 2 C-2.33 4.31 -2.66 6.62 -3 9 C-3.33 9 -3.66 9 -4 9 C-4.37125 7.3603125 -4.37125 7.3603125 -4.75 5.6875 C-6.02002851 1.94091591 -6.65756352 0.89404734 -10 -1 C-5.92224809 -1.9267618 -3.57818963 -2.33958553 0 0 Z " fill="#80633F" transform="translate(589,565)"/>
<path d="M0 0 C-3.09423168 3.09423168 -6.5523812 3.93706005 -10.875 4.125 C-11.57625 4.08375 -12.2775 4.0425 -13 4 C-13 3.34 -13 2.68 -13 2 C-8.50343896 -0.24828052 -4.92127034 -0.16682272 0 0 Z " fill="#7C5934" transform="translate(843,512)"/>
<path d="M0 0 C3 2 3 2 3.6875 5.125 C3.790625 6.07375 3.89375 7.0225 4 8 C3.01 8.495 3.01 8.495 2 9 C1.505 10.2375 1.505 10.2375 1 11.5 C0 14 0 14 -2 15 C-1.34 10.05 -0.68 5.1 0 0 Z " fill="#F2E6CF" transform="translate(863,369)"/>
<path d="M0 0 C0 0.66 0 1.32 0 2 C-1.32 2 -2.64 2 -4 2 C-4 2.66 -4 3.32 -4 4 C-1.36 4 1.28 4 4 4 C4 4.33 4 4.66 4 5 C2.20841511 5.02696365 0.41671527 5.04637917 -1.375 5.0625 C-2.37273438 5.07410156 -3.37046875 5.08570313 -4.3984375 5.09765625 C-7 5 -7 5 -9 4 C-9 3.34 -9 2.68 -9 2 C-3.375 0 -3.375 0 0 0 Z " fill="#7D6345" transform="translate(827,290)"/>
<path d="M0 0 C0 0.99 0 1.98 0 3 C2.97 3 5.94 3 9 3 C9 3.33 9 3.66 9 4 C6.70858714 4.05384521 4.41681812 4.09272087 2.125 4.125 C0.21074219 4.15980469 0.21074219 4.15980469 -1.7421875 4.1953125 C-5 4 -5 4 -7 2 C-2.25 0 -2.25 0 0 0 Z " fill="#765B3D" transform="translate(803,323)"/>
<path d="M0 0 C0 0.99 0 1.98 0 3 C-3.3 3.66 -6.6 4.32 -10 5 C-10 4.01 -10 3.02 -10 2 C-6.5980513 -0.09350689 -3.94727588 -0.17942163 0 0 Z " fill="#825C34" transform="translate(818,307)"/>
<path d="M0 0 C1.32 0.33 2.64 0.66 4 1 C3.83628906 1.50015625 3.67257812 2.0003125 3.50390625 2.515625 C2.8121089 5.9263468 2.89495335 9.28735757 2.9375 12.75 C2.94201172 13.44738281 2.94652344 14.14476562 2.95117188 14.86328125 C2.9628998 16.57555803 2.98083347 18.28779033 3 20 C2.67 20 2.34 20 2 20 C1.93941406 19.14277344 1.87882813 18.28554688 1.81640625 17.40234375 C1.38856464 11.56395127 0.940837 5.77942728 0 0 Z " fill="#714E29" transform="translate(786,287)"/>
<path d="M0 0 C1.65 0 3.3 0 5 0 C5.33 0.99 5.66 1.98 6 3 C3.36 5.31 0.72 7.62 -2 10 C-2.66 9.67 -3.32 9.34 -4 9 C-1.69 6.69 0.62 4.38 3 2 C2.01 1.34 1.02 0.68 0 0 Z " fill="#7C5C39" transform="translate(841,275)"/>
<path d="M0 0 C0.33 0 0.66 0 1 0 C1 3.3 1 6.6 1 10 C-4.57142857 4.85714286 -4.57142857 4.85714286 -5 1 C-4.34 1 -3.68 1 -3 1 C-2.34 1.66 -1.68 2.32 -1 3 C-0.67 2.01 -0.34 1.02 0 0 Z " fill="#6D4F2E" transform="translate(819,242)"/>
<path d="M0 0 C0.33 0.66 0.66 1.32 1 2 C1.66 2.33 2.32 2.66 3 3 C1.25364835 3.53293835 -0.49727652 4.05090663 -2.25 4.5625 C-3.22453125 4.85253906 -4.1990625 5.14257812 -5.203125 5.44140625 C-8 6 -8 6 -12 5 C-8.04 3.35 -4.08 1.7 0 0 Z " fill="#7F6B50" transform="translate(727,390)"/>
<path d="M0 0 C0.66 0 1.32 0 2 0 C1 3 1 3 -1.8125 4.75 C-4.96403086 5.98589446 -5.96929372 6.28222189 -9 5 C-8.01 5 -7.02 5 -6 5 C-6.33 3.68 -6.66 2.36 -7 1 C-5.5459375 1.0309375 -5.5459375 1.0309375 -4.0625 1.0625 C-1.12534105 1.35618499 -1.12534105 1.35618499 0 0 Z " fill="#714E27" transform="translate(723,380)"/>
<path d="M0 0 C0.33 0.66 0.66 1.32 1 2 C0.22265625 3.9453125 0.22265625 3.9453125 -0.9375 6.125 C-1.31777344 6.84945313 -1.69804688 7.57390625 -2.08984375 8.3203125 C-2.54037109 9.15175781 -2.54037109 9.15175781 -3 10 C-4.32 8.35 -5.64 6.7 -7 5 C-4.69 3.35 -2.38 1.7 0 0 Z " fill="#705535" transform="translate(863,260)"/>
<path d="M0 0 C0.99 0.33 1.98 0.66 3 1 C2.88648483 2.81325551 2.75887039 4.62563357 2.625 6.4375 C2.55539062 7.44683594 2.48578125 8.45617187 2.4140625 9.49609375 C2.27742187 10.32238281 2.14078125 11.14867187 2 12 C1.01 12.495 1.01 12.495 0 13 C0.020625 11.9275 0.04125 10.855 0.0625 9.75 C0.01345128 6.8070768 -0.28127127 4.77223939 -1 2 C-0.67 1.34 -0.34 0.68 0 0 Z " fill="#6B431B" transform="translate(798,251)"/>
<path d="M0 0 C0 0.99 0 1.98 0 3 C-0.99 3.33 -1.98 3.66 -3 4 C-4.00642948 5.32848691 -5.00692179 6.66150329 -6 8 C-6.66 8 -7.32 8 -8 8 C-8 9.65 -8 11.3 -8 13 C-8.33 13 -8.66 13 -9 13 C-9.4375 10.4375 -9.4375 10.4375 -9 7 C-3.67664671 0 -3.67664671 0 0 0 Z " fill="#FDF3DC" transform="translate(679,565)"/>
<path d="M0 0 C0 3.31544299 -0.67226165 5.98001389 -1.5 9.1875 C-1.7784375 10.27417969 -2.056875 11.36085938 -2.34375 12.48046875 C-2.66859375 13.72763672 -2.66859375 13.72763672 -3 15 C-3.33 15 -3.66 15 -4 15 C-5.475 7.87083333 -5.475 7.87083333 -3.125 3.5625 C-1 1 -1 1 0 0 Z " fill="#7C5935" transform="translate(617,450)"/>
<path d="M0 0 C-3.14591933 2.80045623 -5.067064 3.35261589 -9.25 3.1875 C-10.14203125 3.16042969 -11.0340625 3.13335937 -11.953125 3.10546875 C-12.62859375 3.07066406 -13.3040625 3.03585937 -14 3 C-10.17190555 -0.82809445 -5.1539534 -0.10105791 0 0 Z " fill="#E7DAC3" transform="translate(828,454)"/>
<path d="M0 0 C0.33 0 0.66 0 1 0 C1 4.62 1 9.24 1 14 C0.01 14.495 0.01 14.495 -1 15 C-1.22304441 13.25181409 -1.4278645 11.50129677 -1.625 9.75 C-1.74101563 8.77546875 -1.85703125 7.8009375 -1.9765625 6.796875 C-2.00112537 3.86570607 -1.5312717 2.45471036 0 0 Z " fill="#784B1F" transform="translate(615,324)"/>
<path d="M0 0 C0.33 0 0.66 0 1 0 C1 2.64 1 5.28 1 8 C0.34 7.67 -0.32 7.34 -1 7 C-1.66 8.32 -2.32 9.64 -3 11 C-3.66 11 -4.32 11 -5 11 C-3.77782954 6.95743617 -2.37245704 3.50711041 0 0 Z " fill="#6D5132" transform="translate(804,229)"/>
<path d="M0 0 C0.99 0.33 1.98 0.66 3 1 C2.2884375 2.0828125 2.2884375 2.0828125 1.5625 3.1875 C0.05847097 5.89475226 -0.56599182 7.96194275 -1 11 C-1.33 11 -1.66 11 -2 11 C-2 8.69 -2 6.38 -2 4 C-2.99 4.66 -3.98 5.32 -5 6 C-3.63016497 2.83884224 -3.0109362 2.0072908 0 0 Z " fill="#6B4D2C" transform="translate(822,368)"/>
<path d="M0 0 C0.33 0 0.66 0 1 0 C1 4.95 1 9.9 1 15 C0.01 15 -0.98 15 -2 15 C-2.33 15.66 -2.66 16.32 -3 17 C-3 15.35 -3 13.7 -3 12 C-2.34 11.67 -1.68 11.34 -1 11 C-0.5316735 8.41394668 -0.5316735 8.41394668 -0.375 5.4375 C-0.30023437 4.42558594 -0.22546875 3.41367187 -0.1484375 2.37109375 C-0.09945312 1.58863281 -0.05046875 0.80617188 0 0 Z " fill="#785531" transform="translate(642,334)"/>
<path d="M0 0 C0.66 0 1.32 0 2 0 C1.83628906 0.69480469 1.67257812 1.38960937 1.50390625 2.10546875 C0.95904004 5.2352816 0.90261517 8.13798083 0.9375 11.3125 C0.95103516 12.91544922 0.95103516 12.91544922 0.96484375 14.55078125 C0.97644531 15.35902344 0.98804688 16.16726562 1 17 C-1.53229508 14.46770492 -1.42944077 13.14172332 -1.75 9.625 C-1.84796875 8.66851562 -1.9459375 7.71203125 -2.046875 6.7265625 C-1.99778678 3.87126439 -1.48085988 2.40354949 0 0 Z " fill="#72583A" transform="translate(825,196)"/>
<path d="M0 0 C2 1.3125 2 1.3125 4 3 C4 3.99 4 4.98 4 6 C5.32 6 6.64 6 8 6 C8 6.66 8 7.32 8 8 C6.02 8 4.04 8 2 8 C1.34 5.36 0.68 2.72 0 0 Z " fill="#7F5F3D" transform="translate(794,576)"/>
<path d="M0 0 C0.33 0 0.66 0 1 0 C1 2.97 1 5.94 1 9 C0.21625 9.309375 -0.5675 9.61875 -1.375 9.9375 C-3.92330128 10.92875038 -3.92330128 10.92875038 -6 12 C-5.25 9.5625 -5.25 9.5625 -4 7 C-1.875 6.1875 -1.875 6.1875 0 6 C0 4.02 0 2.04 0 0 Z " fill="#694723" transform="translate(800,552)"/>
<path d="M0 0 C0 4.07546013 -1.55304448 5.80536362 -4 9 C-6.25 10.375 -6.25 10.375 -8 11 C-8.33 10.01 -8.66 9.02 -9 8 C-8.43410156 7.50628906 -7.86820313 7.01257813 -7.28515625 6.50390625 C-6.55167969 5.86324219 -5.81820312 5.22257813 -5.0625 4.5625 C-4.33160156 3.92441406 -3.60070312 3.28632813 -2.84765625 2.62890625 C-1.87860647 1.77458541 -0.91348825 0.91348825 0 0 Z " fill="#7E5E39" transform="translate(859,185)"/>
<path d="M0 0 C2.25 0.125 2.25 0.125 5 1 C9 5.97297297 9 5.97297297 9 10 C8.34 10 7.68 10 7 10 C6.54625 9.030625 6.0925 8.06125 5.625 7.0625 C4.34213779 3.92920418 4.34213779 3.92920418 2 3 C2 2.34 2 1.68 2 1 C1.34 0.67 0.68 0.34 0 0 Z " fill="#7E5E39" transform="translate(586,451)"/>
<path d="M0 0 C2.64 0 5.28 0 8 0 C6.35 1.65 4.7 3.3 3 5 C2.01 4.34 1.02 3.68 0 3 C0 2.01 0 1.02 0 0 Z " fill="#E6D6BC" transform="translate(818,309)"/>
<path d="M0 0 C1.26026798 2.52053595 0.91874445 3.8542098 0.5625 6.625 C0.46066406 7.44226563 0.35882812 8.25953125 0.25390625 9.1015625 C0.17011719 9.72804688 0.08632813 10.35453125 0 11 C-0.66 10.01 -1.32 9.02 -2 8 C-2.99 8.495 -2.99 8.495 -4 9 C-3.46930939 5.17902761 -2.50298434 2.93828597 0 0 Z " fill="#6C4D2B" transform="translate(786,260)"/>
<path d="M0 0 C0.33 0 0.66 0 1 0 C1 1.65 1 3.3 1 5 C2.65 5 4.3 5 6 5 C6 5.66 6 6.32 6 7 C3.69 7 1.38 7 -1 7 C-1.04254356 5.00045254 -1.04080783 2.99958364 -1 1 C-0.67 0.67 -0.34 0.34 0 0 Z " fill="#FBF8EA" transform="translate(563,552)"/>
<path d="M0 0 C0.33 0 0.66 0 1 0 C0.91291331 1.45945288 0.80473093 2.91765868 0.6875 4.375 C0.62949219 5.18710937 0.57148437 5.99921875 0.51171875 6.8359375 C0 9 0 9 -3 11 C-3 8.03 -3 5.06 -3 2 C-2.67 2.66 -2.34 3.32 -2 4 C-1.34 4 -0.68 4 0 4 C0 2.68 0 1.36 0 0 Z " fill="#F4ECD6" transform="translate(825,370)"/>
<path d="M0 0 C2 2 2 2 2.1953125 4.3828125 C2.17210937 5.28773438 2.14890625 6.19265625 2.125 7.125 C2.10695313 8.03507812 2.08890625 8.94515625 2.0703125 9.8828125 C2.03550781 10.93082031 2.03550781 10.93082031 2 12 C0.48046875 10.79296875 0.48046875 10.79296875 -1 9 C-1.07421875 6.73828125 -1.07421875 6.73828125 -0.6875 4.3125 C-0.56761719 3.50425781 -0.44773437 2.69601562 -0.32421875 1.86328125 C-0.21722656 1.24839844 -0.11023438 0.63351562 0 0 Z " fill="#755939" transform="translate(778,304)"/>
<path d="M0 0 C1 2 1 2 0.44140625 3.9453125 C0.15136719 4.66460937 -0.13867188 5.38390625 -0.4375 6.125 C-0.72496094 6.84945312 -1.01242187 7.57390625 -1.30859375 8.3203125 C-1.53675781 8.87460938 -1.76492188 9.42890625 -2 10 C-2.33 9.34 -2.66 8.68 -3 8 C-3.66 7.67 -4.32 7.34 -5 7 C-3.35 4.69 -1.7 2.38 0 0 Z " fill="#796246" transform="translate(876,219)"/>
<path d="M0 0 C0.33 0.66 0.66 1.32 1 2 C1.66 2 2.32 2 3 2 C2.1654738 4.50357861 1.20628008 6.66785852 0 9 C-0.99 9 -1.98 9 -3 9 C-2.44271087 5.65626525 -1.64826111 2.96687001 0 0 Z " fill="#7A5732" transform="translate(840,204)"/>
<path d="M0 0 C2.31 1.98 4.62 3.96 7 6 C6.67 6.66 6.34 7.32 6 8 C4.68 7.67 3.36 7.34 2 7 C1.34 4.69 0.68 2.38 0 0 Z " fill="#795733" transform="translate(692,574)"/>
<path d="M0 0 C0.66 0.66 1.32 1.32 2 2 C0.68 4.31 -0.64 6.62 -2 9 C-2.66 8.67 -3.32 8.34 -4 8 C-3.67 6.35 -3.34 4.7 -3 3 C-2.34 3 -1.68 3 -1 3 C-0.67 2.01 -0.34 1.02 0 0 Z " fill="#7D5A35" transform="translate(804,461)"/>
<path d="M0 0 C-0.99 0.495 -0.99 0.495 -2 1 C-2 1.66 -2 2.32 -2 3 C-4.875 3.625 -4.875 3.625 -8 4 C-8.66 3.34 -9.32 2.68 -10 2 C-3.375 -1.125 -3.375 -1.125 0 0 Z " fill="#825D36" transform="translate(657,288)"/>
<path d="M0 0 C-1.49097658 3.7952131 -3.75700849 5.61042731 -7 8 C-7 5 -7 5 -4.625 2.3125 C-2 0 -2 0 0 0 Z " fill="#ECDFC7" transform="translate(857,244)"/>
<path d="M0 0 C3.465 1.485 3.465 1.485 7 3 C6.67 3.99 6.34 4.98 6 6 C3.08482708 4.92598892 1.22189824 4.22189824 -1 2 C-0.67 1.34 -0.34 0.68 0 0 Z " fill="#82613F" transform="translate(655,454)"/>
<path d="M0 0 C0.66 1.32 1.32 2.64 2 4 C1.34 4 0.68 4 0 4 C-0.12375 4.61875 -0.2475 5.2375 -0.375 5.875 C-1 8 -1 8 -3 10 C-2.25 3.375 -2.25 3.375 0 0 Z " fill="#EDDBC1" transform="translate(783,283)"/>
<path d="M0 0 C0.33 0 0.66 0 1 0 C1.33 3.96 1.66 7.92 2 12 C1.01 12 0.02 12 -1 12 C-0.67 8.04 -0.34 4.08 0 0 Z " fill="#69431D" transform="translate(817,233)"/>
<path d="M0 0 C0.66 0.66 1.32 1.32 2 2 C0.68 3.65 -0.64 5.3 -2 7 C-3.65 6.67 -5.3 6.34 -7 6 C-7 5.34 -7 4.68 -7 4 C-5.35 4 -3.7 4 -2 4 C-1.34 2.68 -0.68 1.36 0 0 Z " fill="#6B4C29" transform="translate(588,575)"/>
<path d="M0 0 C2.25245881 2.68841859 3.88213958 4.64641875 5 8 C4.01 8.495 4.01 8.495 3 9 C3 8.01 3 7.02 3 6 C1.68 5.67 0.36 5.34 -1 5 C-0.67 3.35 -0.34 1.7 0 0 Z " fill="#7F5E3A" transform="translate(826,551)"/>
<path d="M0 0 C0 0.66 0 1.32 0 2 C-3.3 2 -6.6 2 -10 2 C-7.85732894 -2.28534211 -3.95706306 -0.79141261 0 0 Z " fill="#865A2C" transform="translate(560,491)"/>
<path d="M0 0 C-3.42346555 3.14958831 -6.44262737 3.56179109 -11 4 C-3.77464789 -1.88732394 -3.77464789 -1.88732394 0 0 Z " fill="#EBDFC8" transform="translate(799,357)"/>
<path d="M0 0 C0.33 0 0.66 0 1 0 C0.979375 1.0725 0.95875 2.145 0.9375 3.25 C0.9857984 6.14790424 1.13155885 8.28612141 2 11 C1.34 11 0.68 11 0 11 C-0.38909985 9.54536519 -0.76088029 8.08608793 -1.125 6.625 C-1.33382812 5.81289063 -1.54265625 5.00078125 -1.7578125 4.1640625 C-1.83773437 3.44992187 -1.91765625 2.73578125 -2 2 C-1.34 1.34 -0.68 0.68 0 0 Z " fill="#6F4722" transform="translate(615,352)"/>
<path d="M0 0 C0.33 0.99 0.66 1.98 1 3 C-4.5 6.125 -4.5 6.125 -9 5 C-6.03 3.35 -3.06 1.7 0 0 Z " fill="#785633" transform="translate(819,315)"/>
<path d="M0 0 C0.66 0.66 1.32 1.32 2 2 C-0.99480917 2.8723412 -3.63575911 3.10829766 -6.75 3.0625 C-7.54921875 3.05347656 -8.3484375 3.04445312 -9.171875 3.03515625 C-9.77515625 3.02355469 -10.3784375 3.01195312 -11 3 C-7.3407937 1.03337811 -4.16971689 0.30886792 0 0 Z " fill="#84633D" transform="translate(865,230)"/>
<path d="M0 0 C0.66 0 1.32 0 2 0 C3.32 2.31 4.64 4.62 6 7 C4.68 6.67 3.36 6.34 2 6 C2 5.34 2 4.68 2 4 C1.34 4 0.68 4 0 4 C0 2.68 0 1.36 0 0 Z " fill="#7C5934" transform="translate(751,212)"/>
<path d="M0 0 C-0.375 2.9375 -0.375 2.9375 -1 6 C-1.99 6.495 -1.99 6.495 -3 7 C-3.33 5.02 -3.66 3.04 -4 1 C-2 0 -2 0 0 0 Z " fill="#74522B" transform="translate(624,548)"/>
<path d="M0 0 C0.99 0 1.98 0 3 0 C2.75 2.375 2.75 2.375 2 5 C-0.0625 6.3125 -0.0625 6.3125 -2 7 C-2 3.89448334 -1.4606285 2.64738916 0 0 Z " fill="#78522A" transform="translate(859,241)"/>
<path d="M0 0 C0.66 0.33 1.32 0.66 2 1 C2.625 3.5625 2.625 3.5625 3 6 C2.01 6.33 1.02 6.66 0 7 C-0.66 5.02 -1.32 3.04 -2 1 C-1.34 0.67 -0.68 0.34 0 0 Z " fill="#84603A" transform="translate(691,573)"/>
<path d="M0 0 C0.93423645 3.01031744 1.04449911 3.86650268 0 7 C-2.0625 8.1875 -2.0625 8.1875 -4 9 C-2.80100302 5.9168649 -1.52299523 2.93720508 0 0 Z " fill="#F0E5D0" transform="translate(668,499)"/>
<path d="M0 0 C0 0.99 0 1.98 0 3 C-0.99 3.33 -1.98 3.66 -3 4 C-3.33 3.34 -3.66 2.68 -4 2 C-4.99 1.34 -5.98 0.68 -7 0 C-3.86650268 -1.04449911 -3.01031744 -0.93423645 0 0 Z " fill="#744B24" transform="translate(842,391)"/>
<path d="M0 0 C0.66 0.33 1.32 0.66 2 1 C-1.465 3.97 -1.465 3.97 -5 7 C-5.66 6.67 -6.32 6.34 -7 6 C-5.01180815 3.01771223 -3.42353587 1.21480305 0 0 Z " fill="#6A4A27" transform="translate(754,359)"/>
<path d="M0 0 C0.66 0.33 1.32 0.66 2 1 C0.02 3.97 0.02 3.97 -2 7 C-2.66 5.68 -3.32 4.36 -4 3 C-2.68 2.01 -1.36 1.02 0 0 Z " fill="#6A5034" transform="translate(844,296)"/>
<path d="M0 0 C1.32 0 2.64 0 4 0 C3.39816251 2.02045442 2.72693904 4.02111039 2 6 C1.01 6.495 1.01 6.495 0 7 C0 4.69 0 2.38 0 0 Z " fill="#ECD7B9" transform="translate(815,264)"/>
<path d="M0 0 C2 2 2 2 2.125 5.125 C2.08375 6.07375 2.0425 7.0225 2 8 C1.34 8 0.68 8 0 8 C-0.38063221 5.6739143 -0.71269945 3.33944736 -1 1 C-0.67 0.67 -0.34 0.34 0 0 Z " fill="#7C5127" transform="translate(585,547)"/>
<path d="M0 0 C1.98 0 3.96 0 6 0 C6 0.66 6 1.32 6 2 C6.66 2.33 7.32 2.66 8 3 C4.79937313 4.60031344 2.27728194 3.03173691 -1 2 C-0.67 1.34 -0.34 0.68 0 0 Z " fill="#805D37" transform="translate(829,453)"/>
<path d="M0 0 C1.65 0.33 3.3 0.66 5 1 C2.37801226 3.15377564 0.35595828 4.40072174 -3 5 C-2.01 3.35 -1.02 1.7 0 0 Z " fill="#F3E3C8" transform="translate(807,301)"/>
</svg>
